<svg width="192" height="35" viewBox="0 0 192 35" fill="none" xmlns="http://www.w3.org/2000/svg">
<path d="M45.9785 32.8901C46.0371 32.9927 46.0664 33.1172 46.0664 33.2637C46.0664 33.4834 45.9858 33.6738 45.8247 33.835C45.6782 33.9961 45.4805 34.0767 45.2314 34.0767C45.0703 34.0767 44.9238 34.04 44.792 33.9668C44.6748 33.8936 44.5796 33.7837 44.5063 33.6372C44.228 33.0952 43.979 32.4214 43.7593 31.6157C43.5542 30.7954 43.3711 29.8872 43.21 28.8911C43.0635 27.895 42.939 26.8257 42.8364 25.6831C42.7485 24.5259 42.6753 23.332 42.6167 22.1016C41.5181 22.248 40.2803 22.4092 38.9033 22.585C37.541 22.7607 35.981 22.9658 34.2231 23.2002C32.9927 23.376 31.7402 23.5298 30.4658 23.6616C27.3311 27.0747 24.0278 29.6675 20.5562 31.4399C17.0991 33.1978 13.6274 34.0767 10.1411 34.0767C8.58838 34.0767 7.24072 33.9229 6.09814 33.6152C4.97021 33.3223 4.03271 32.9927 3.28564 32.6265C2.55322 32.2456 2.00391 31.894 1.6377 31.5718C1.25684 31.2495 1.05176 31.0737 1.02246 31.0444C0.875977 30.8979 0.802734 30.7075 0.802734 30.4731C0.802734 30.2388 0.883301 30.041 1.04443 29.8799C1.20557 29.7188 1.396 29.6382 1.61572 29.6382C1.86475 29.6382 2.06982 29.7261 2.23096 29.9019C2.26025 29.9312 2.43604 30.085 2.7583 30.3633C3.08057 30.627 3.55664 30.9126 4.18652 31.2202C4.83105 31.5278 5.64404 31.8062 6.62549 32.0552C7.60693 32.3042 8.77148 32.4287 10.1191 32.4287C11.9648 32.4287 13.73 32.1797 15.4146 31.6816C17.0991 31.1836 18.6885 30.5391 20.1826 29.748C21.6914 28.9424 23.0903 28.0269 24.3794 27.0015C25.6831 25.9761 26.8623 24.936 27.917 23.8813C26.877 23.9692 25.8442 24.0352 24.8188 24.0791C23.7935 24.123 22.7827 24.145 21.7866 24.145C19.8237 24.145 17.9561 24.0352 16.1836 23.8154C14.4111 23.5957 12.8511 23.2295 11.5034 22.7168C10.1558 22.1895 9.0791 21.4937 8.27344 20.6294C7.48242 19.7651 7.08691 18.6885 7.08691 17.3994C7.08691 16.8135 7.2041 16.2275 7.43848 15.6416C7.6875 15.0557 7.98047 14.5283 8.31738 14.0596C8.6543 13.5762 9.00586 13.188 9.37207 12.895C9.73828 12.5874 10.0532 12.4336 10.3169 12.4336C10.522 12.4336 10.7124 12.5068 10.8882 12.6533C11.064 12.7998 11.1519 12.9976 11.1519 13.2466C11.1519 13.3784 11.1226 13.5103 11.064 13.6421C11.0054 13.7593 10.9175 13.8545 10.8003 13.9277C10.771 13.957 10.6465 14.0596 10.4268 14.2354C10.207 14.4111 9.97266 14.6528 9.72363 14.9604C9.47461 15.2534 9.24756 15.6123 9.04248 16.0371C8.8374 16.4473 8.73486 16.894 8.73486 17.3774C8.73486 18.2124 9.02051 18.9521 9.5918 19.5967C10.1777 20.2266 11.02 20.7612 12.1187 21.2007C13.2319 21.6255 14.5942 21.9478 16.2056 22.1675C17.8169 22.3872 19.6553 22.4971 21.7207 22.4971C22.9072 22.4971 24.1597 22.4604 25.478 22.3872C26.7964 22.314 28.188 22.2041 29.6528 22.0576C30.356 21.2812 30.9785 20.5488 31.5205 19.8604C32.0625 19.1719 32.5239 18.5566 32.9048 18.0146C33.5347 17.1211 34.1938 16.1689 34.8823 15.1582C35.5708 14.1475 36.252 13.1221 36.9258 12.082C37.6143 11.042 38.2808 10.0166 38.9253 9.00586C39.5845 7.98047 40.1997 7.021 40.771 6.12744C41.3423 5.21924 41.855 4.39893 42.3091 3.6665C42.7632 2.91943 43.1367 2.3042 43.4297 1.8208C43.5176 1.42529 43.6494 1.06641 43.8252 0.744141C44.001 0.407227 44.2866 0.23877 44.6821 0.23877C44.9019 0.23877 45.1143 0.333984 45.3193 0.524414C45.5244 0.700195 45.627 0.927246 45.627 1.20557C45.627 1.41064 45.5537 1.63037 45.4072 1.86475C45.2607 2.09912 45.1216 2.29688 44.9897 2.45801C44.9458 2.73633 44.8726 3.32959 44.77 4.23779C44.6821 5.146 44.5869 6.25928 44.4844 7.57764C44.3965 8.88135 44.3159 10.3242 44.2427 11.9062C44.1841 13.4736 44.1548 15.063 44.1548 16.6743C44.1548 17.2749 44.1548 17.8682 44.1548 18.4541C44.1548 19.04 44.1694 19.6333 44.1987 20.2339C46.396 19.9556 48 19.7651 49.0107 19.6626C50.0215 19.5454 50.5562 19.4868 50.6147 19.4868C50.8052 19.4868 50.9883 19.5674 51.1641 19.7285C51.3545 19.875 51.4497 20.0728 51.4497 20.3218C51.4497 20.5269 51.3765 20.71 51.23 20.8711C51.0981 21.0176 50.9224 21.1055 50.7026 21.1348C50.439 21.1641 50.1313 21.2007 49.7798 21.2446C49.4282 21.2886 48.9961 21.3398 48.4834 21.3984C47.9707 21.457 47.3701 21.5303 46.6816 21.6182C45.9932 21.6914 45.1875 21.7866 44.2646 21.9038C44.3086 23.105 44.3745 24.2622 44.4624 25.3755C44.5649 26.4741 44.6821 27.4995 44.814 28.4517C44.9604 29.4038 45.1289 30.2607 45.3193 31.0225C45.5098 31.7842 45.7295 32.4067 45.9785 32.8901ZM34.0034 21.5522C35.7319 21.3179 37.2993 21.1128 38.7056 20.937C40.1265 20.7466 41.4082 20.5781 42.5508 20.4316C42.5361 19.8018 42.5215 19.1719 42.5068 18.542C42.5068 17.9121 42.5068 17.2749 42.5068 16.6304C42.5068 14.5649 42.5435 12.5947 42.6167 10.7197C42.6899 8.83008 42.7925 7.18945 42.9243 5.79785C42.3384 6.7207 41.6865 7.74609 40.9688 8.87402C40.2656 9.9873 39.5332 11.1299 38.7715 12.3018C38.0098 13.459 37.2407 14.6089 36.4644 15.7515C35.688 16.894 34.9482 17.9634 34.2451 18.9595C33.8936 19.4575 33.5347 19.9409 33.1685 20.4097C32.8022 20.8784 32.436 21.3398 32.0698 21.7939C32.3921 21.7646 32.707 21.728 33.0146 21.6841C33.3369 21.6401 33.6665 21.5962 34.0034 21.5522ZM55.8223 32.3628C55.8223 32.6997 55.7051 32.978 55.4707 33.1978C55.251 33.4321 54.9727 33.5493 54.6357 33.5493C54.2988 33.5493 54.0132 33.4321 53.7788 33.1978C53.5591 32.978 53.4492 32.6997 53.4492 32.3628C53.4492 32.0405 53.5591 31.7695 53.7788 31.5498C54.0132 31.3154 54.2988 31.1982 54.6357 31.1982C54.9727 31.1982 55.251 31.3154 55.4707 31.5498C55.7051 31.7695 55.8223 32.0405 55.8223 32.3628ZM98.5371 9.92871C98.4932 10.1338 98.3979 10.2949 98.2515 10.4121C98.105 10.5293 97.9438 10.5879 97.7681 10.5879C97.5044 10.5879 97.292 10.5073 97.1309 10.3462C96.9697 10.1704 96.8892 9.97266 96.8892 9.75293C96.8892 9.5332 96.9111 9.3208 96.9551 9.11572C96.999 8.896 97.021 8.68359 97.021 8.47852C97.021 7.40918 96.6914 6.44971 96.0322 5.6001C95.373 4.75049 94.4355 4.04004 93.2197 3.46875C92.0186 2.88281 90.5537 2.43604 88.8252 2.12842C87.0967 1.8208 85.1704 1.66699 83.0464 1.66699C81.4204 1.66699 79.7798 1.77686 78.1245 1.99658C76.4839 2.20166 74.9019 2.50928 73.3784 2.91943C71.8696 3.31494 70.4561 3.82031 69.1377 4.43555C67.8193 5.03613 66.6694 5.73926 65.688 6.54492C64.7212 7.33594 63.9595 8.22217 63.4028 9.20361C62.8462 10.1704 62.5679 11.2324 62.5679 12.3896C62.5679 13.2832 62.7583 14.0742 63.1392 14.7627C63.5347 15.4365 64.0693 16.0298 64.7432 16.5425C65.417 17.0405 66.208 17.4727 67.1162 17.8389C68.0391 18.1904 69.0352 18.4907 70.1045 18.7397C71.1738 18.9741 72.2871 19.1719 73.4443 19.333C74.6016 19.4795 75.7661 19.604 76.938 19.7065L80.3218 19.9922C82.0063 20.1387 83.5151 20.2925 84.8481 20.4536C86.1812 20.6147 87.353 20.8198 88.3638 21.0688C90.0483 21.4937 91.2935 22.1016 92.0991 22.8926C92.9048 23.6836 93.3076 24.7383 93.3076 26.0566C93.3076 27.3311 92.9561 28.4517 92.2529 29.4185C91.5498 30.3853 90.5903 31.1982 89.3745 31.8574C88.1587 32.5166 86.7378 33.0146 85.1118 33.3516C83.4858 33.6885 81.7427 33.8569 79.8823 33.8569C77.8608 33.8569 76.0811 33.7178 74.543 33.4395C73.0195 33.1758 71.7378 32.8828 70.6978 32.5605C69.6724 32.2236 68.8887 31.916 68.3467 31.6377C67.8047 31.3594 67.5117 31.2056 67.4678 31.1763C67.2041 31.0298 67.0723 30.7954 67.0723 30.4731C67.0723 30.2241 67.1602 30.0264 67.3359 29.8799C67.5117 29.7188 67.7021 29.6382 67.9072 29.6382C68.0684 29.6382 68.2148 29.6821 68.3467 29.77C68.3613 29.77 68.6104 29.9019 69.0938 30.1655C69.5918 30.4146 70.3242 30.6929 71.291 31.0005C72.2725 31.3081 73.481 31.5864 74.9165 31.8354C76.3521 32.0845 78.022 32.209 79.9263 32.209C81.8159 32.209 83.4858 32.0552 84.936 31.7476C86.3862 31.4399 87.6021 31.0151 88.5835 30.4731C89.5796 29.9165 90.3267 29.272 90.8247 28.5396C91.3374 27.7925 91.5938 26.9868 91.5938 26.1226C91.5938 25.6099 91.4985 25.1704 91.3081 24.8042C91.1323 24.4233 90.8833 24.1011 90.561 23.8374C90.2388 23.5591 89.8506 23.3247 89.3965 23.1343C88.957 22.9438 88.4736 22.7827 87.9463 22.6509C87.3896 22.5044 86.7891 22.3799 86.1445 22.2773C85.5146 22.1748 84.8628 22.0869 84.189 22.0137C83.5151 21.9404 82.834 21.8745 82.1455 21.8159C81.4717 21.7573 80.8052 21.6987 80.146 21.6401L76.7622 21.3545C74.0962 21.1348 71.7671 20.7979 69.7749 20.3438C67.7974 19.875 66.1494 19.2817 64.8311 18.564C63.5127 17.8315 62.5239 16.96 61.8647 15.9492C61.2056 14.9385 60.876 13.7593 60.876 12.4116C60.876 11.0347 61.1836 9.7749 61.7988 8.63232C62.4287 7.4751 63.2783 6.43506 64.3477 5.51221C65.4316 4.58936 66.6914 3.79102 68.127 3.11719C69.5771 2.42871 71.1226 1.85742 72.7632 1.40332C74.4038 0.949219 76.103 0.612305 77.8608 0.392578C79.6187 0.158203 81.3472 0.0410156 83.0464 0.0410156C85.1704 0.0410156 87.0161 0.172852 88.5835 0.436523C90.1655 0.685547 91.5132 1.01514 92.6265 1.42529C93.7544 1.8208 94.6772 2.2749 95.395 2.7876C96.1128 3.30029 96.6914 3.80566 97.1309 4.30371C98.1709 5.51953 98.6909 6.90381 98.6909 8.45654C98.6909 8.96924 98.6396 9.45996 98.5371 9.92871ZM113.457 26.8696C113.398 26.9868 113.273 27.2358 113.083 27.6167C112.907 27.9829 112.673 28.4077 112.38 28.8911C112.102 29.3745 111.772 29.8799 111.391 30.4072C111.01 30.9346 110.585 31.418 110.117 31.8574C109.648 32.2969 109.143 32.6631 108.601 32.9561C108.059 33.2344 107.487 33.3735 106.887 33.3735C106.037 33.3735 105.319 33.1025 104.733 32.5605C104.162 32.0186 103.745 31.3374 103.481 30.5171C102.983 31.3521 102.39 32.0186 101.701 32.5166C101.013 33 100.324 33.2417 99.6357 33.2417C99.0938 33.2417 98.603 33.1465 98.1636 32.9561C97.7241 32.751 97.3506 32.4727 97.043 32.1211C96.7354 31.7549 96.4937 31.3301 96.3179 30.8467C96.1567 30.3633 96.0762 29.8359 96.0762 29.2646C96.0762 28.1221 96.2666 27.1187 96.6475 26.2544C97.043 25.3755 97.541 24.6431 98.1416 24.0571C98.7422 23.4712 99.4014 23.0317 100.119 22.7388C100.852 22.4458 101.555 22.2993 102.229 22.2993C102.683 22.2993 103.1 22.3652 103.481 22.4971C103.862 22.6143 104.184 22.7461 104.448 22.8926C104.726 23.0391 104.938 23.1782 105.085 23.3101C105.231 23.4272 105.312 23.4932 105.327 23.5078C105.488 23.6982 105.568 23.896 105.568 24.1011C105.568 24.3208 105.488 24.5186 105.327 24.6943C105.166 24.8555 104.975 24.936 104.755 24.936C104.521 24.936 104.323 24.8555 104.162 24.6943C104.133 24.665 104.067 24.6138 103.964 24.5405C103.862 24.4526 103.723 24.3647 103.547 24.2769C103.371 24.189 103.159 24.1157 102.91 24.0571C102.675 23.9839 102.404 23.9473 102.097 23.9473C101.643 23.9473 101.159 24.0498 100.646 24.2549C100.134 24.46 99.665 24.7822 99.2402 25.2217C98.8154 25.6465 98.4565 26.1885 98.1636 26.8477C97.8853 27.4922 97.7461 28.2612 97.7461 29.1548C97.7461 29.4331 97.7754 29.7188 97.834 30.0117C97.8926 30.29 97.9951 30.5464 98.1416 30.7808C98.2881 31.0151 98.4858 31.2056 98.7349 31.3521C98.9839 31.4985 99.2915 31.5718 99.6577 31.5718C99.9214 31.5718 100.222 31.4839 100.559 31.3081C100.91 31.1323 101.24 30.8613 101.547 30.4951C101.87 30.1289 102.155 29.6675 102.404 29.1108C102.668 28.5542 102.851 27.895 102.954 27.1333C102.983 26.9282 103.078 26.7598 103.239 26.6279C103.4 26.4814 103.591 26.4082 103.811 26.4082C104.016 26.4082 104.191 26.4888 104.338 26.6499C104.499 26.811 104.587 26.9941 104.602 27.1992C104.616 27.4775 104.646 27.873 104.689 28.3857C104.733 28.8838 104.829 29.3818 104.975 29.8799C105.136 30.3779 105.371 30.8101 105.678 31.1763C105.986 31.5425 106.411 31.7256 106.953 31.7256C107.304 31.7256 107.648 31.6304 107.985 31.4399C108.337 31.2495 108.674 31.0005 108.996 30.6929C109.333 30.3706 109.648 30.0117 109.941 29.6162C110.249 29.2061 110.527 28.7959 110.776 28.3857C111.025 27.9756 111.245 27.5801 111.435 27.1992C111.625 26.8184 111.787 26.4888 111.918 26.2104C111.992 26.0493 112.094 25.9248 112.226 25.8369C112.373 25.749 112.526 25.7051 112.688 25.7051C112.937 25.7051 113.134 25.8003 113.281 25.9907C113.442 26.1665 113.522 26.3569 113.522 26.562C113.522 26.6646 113.5 26.7671 113.457 26.8696ZM130.463 26.9136C130.419 27.0015 130.324 27.1846 130.178 27.4629C130.031 27.7266 129.841 28.0415 129.606 28.4077C129.372 28.7593 129.094 29.1401 128.771 29.5503C128.449 29.9458 128.098 30.312 127.717 30.6489C127.336 30.9858 126.926 31.2642 126.486 31.4839C126.047 31.7036 125.593 31.8135 125.124 31.8135C124.362 31.8135 123.718 31.6816 123.19 31.418C122.663 31.1396 122.231 30.832 121.894 30.4951C121.66 31.0078 121.374 31.4766 121.037 31.9014C120.7 32.3262 120.327 32.6924 119.917 33C119.506 33.3223 119.067 33.5713 118.598 33.7471C118.144 33.9229 117.675 34.0107 117.192 34.0107C116.298 34.0107 115.537 33.7471 114.907 33.2197C114.277 32.6924 113.75 31.9893 113.325 31.1104C112.915 30.2168 112.592 29.1841 112.358 28.0122C112.124 26.8403 111.94 25.6099 111.809 24.3208C111.691 23.0317 111.618 21.728 111.589 20.4097C111.56 19.0913 111.545 17.8389 111.545 16.6523C111.545 14.3818 111.611 12.4189 111.743 10.7637C111.875 9.09375 112.05 7.68018 112.27 6.52295C112.504 5.35107 112.768 4.40625 113.061 3.68848C113.369 2.95605 113.691 2.39209 114.028 1.99658C114.365 1.58643 114.709 1.30811 115.061 1.16162C115.412 1.01514 115.756 0.941895 116.093 0.941895C116.635 0.941895 117.111 1.10303 117.521 1.42529C117.946 1.74756 118.298 2.20166 118.576 2.7876C118.869 3.35889 119.089 4.05469 119.235 4.875C119.382 5.69531 119.455 6.59619 119.455 7.57764C119.455 9.14502 119.287 10.7637 118.95 12.4336C118.613 14.1035 118.173 15.7734 117.631 17.4434C117.104 19.0986 116.511 20.7319 115.852 22.3433C115.192 23.9399 114.541 25.4561 113.896 26.8916C113.984 27.6094 114.116 28.2979 114.292 28.957C114.467 29.6016 114.694 30.1802 114.973 30.6929C115.251 31.1909 115.581 31.5938 115.961 31.9014C116.342 32.1943 116.782 32.3408 117.28 32.3408C117.778 32.3408 118.247 32.2017 118.686 31.9233C119.125 31.6304 119.506 31.2568 119.829 30.8027C120.151 30.334 120.4 29.8066 120.576 29.2207C120.766 28.6348 120.861 28.0342 120.861 27.4189C120.861 27.0088 120.817 26.5986 120.729 26.1885C120.656 25.7637 120.532 25.3901 120.356 25.0679C120.195 24.731 119.99 24.46 119.741 24.2549C119.492 24.0498 119.191 23.9473 118.84 23.9473C118.576 23.9473 118.371 24.0059 118.225 24.123C118.078 24.2256 117.968 24.3501 117.895 24.4966C117.822 24.6284 117.778 24.7603 117.763 24.8921C117.749 25.0239 117.741 25.1118 117.741 25.1558C117.741 25.3608 117.785 25.5659 117.873 25.771C117.961 25.9761 118.129 26.1592 118.378 26.3203C118.627 26.4961 118.752 26.7378 118.752 27.0454C118.752 27.2944 118.664 27.4922 118.488 27.6387C118.327 27.7852 118.144 27.8584 117.939 27.8584C117.646 27.8584 117.382 27.7705 117.148 27.5947C116.928 27.4189 116.738 27.1992 116.577 26.9355C116.416 26.6572 116.291 26.3643 116.203 26.0566C116.115 25.749 116.071 25.4634 116.071 25.1997C116.071 24.7749 116.145 24.3867 116.291 24.0352C116.438 23.6689 116.635 23.3613 116.884 23.1123C117.148 22.8486 117.441 22.6509 117.763 22.519C118.1 22.3726 118.452 22.2993 118.818 22.2993C119.448 22.2993 119.99 22.4458 120.444 22.7388C120.913 23.0317 121.301 23.4199 121.608 23.9033C121.916 24.3867 122.143 24.936 122.29 25.5513C122.436 26.1665 122.509 26.7891 122.509 27.4189C122.509 27.7852 122.487 28.144 122.443 28.4956C122.502 28.6128 122.597 28.7666 122.729 28.957C122.861 29.1475 123.037 29.3306 123.256 29.5063C123.476 29.6821 123.74 29.8359 124.047 29.9678C124.355 30.0996 124.714 30.1655 125.124 30.1655C125.476 30.1655 125.834 30.0337 126.201 29.77C126.582 29.4917 126.94 29.1548 127.277 28.7593C127.629 28.3491 127.951 27.917 128.244 27.4629C128.537 26.9941 128.779 26.562 128.969 26.1665C129.042 26.02 129.145 25.9102 129.277 25.8369C129.409 25.749 129.555 25.7051 129.716 25.7051C129.965 25.7051 130.163 25.793 130.31 25.9688C130.471 26.1445 130.551 26.3423 130.551 26.562C130.551 26.6499 130.522 26.7671 130.463 26.9136ZM113.479 24.0791C113.977 22.8486 114.482 21.5596 114.995 20.2119C115.507 18.8496 115.969 17.4653 116.379 16.0591C116.789 14.6528 117.126 13.2319 117.39 11.7964C117.653 10.3608 117.785 8.94727 117.785 7.55566C117.785 7.02832 117.756 6.479 117.697 5.90771C117.653 5.32178 117.565 4.78711 117.434 4.30371C117.302 3.82031 117.119 3.41748 116.884 3.09521C116.665 2.77295 116.379 2.61182 116.027 2.61182C115.91 2.61182 115.756 2.69238 115.566 2.85352C115.39 3 115.2 3.271 114.995 3.6665C114.79 4.04736 114.584 4.58203 114.379 5.27051C114.174 5.95898 113.984 6.83789 113.808 7.90723C113.647 8.96191 113.508 10.2363 113.391 11.7305C113.288 13.2246 113.237 14.9824 113.237 17.0039C113.237 17.6777 113.244 18.3662 113.259 19.0693C113.273 19.7578 113.288 20.417 113.303 21.0469C113.332 21.6768 113.361 22.2554 113.391 22.7827C113.42 23.3101 113.449 23.7422 113.479 24.0791ZM147.514 26.9136C147.47 27.0015 147.375 27.1846 147.229 27.4629C147.082 27.7266 146.892 28.0415 146.657 28.4077C146.423 28.7593 146.145 29.1401 145.822 29.5503C145.5 29.9458 145.148 30.312 144.768 30.6489C144.387 30.9858 143.977 31.2642 143.537 31.4839C143.098 31.7036 142.644 31.8135 142.175 31.8135C141.413 31.8135 140.769 31.6816 140.241 31.418C139.714 31.1396 139.282 30.832 138.945 30.4951C138.71 31.0078 138.425 31.4766 138.088 31.9014C137.751 32.3262 137.377 32.6924 136.967 33C136.557 33.3223 136.118 33.5713 135.649 33.7471C135.195 33.9229 134.726 34.0107 134.243 34.0107C133.349 34.0107 132.587 33.7471 131.958 33.2197C131.328 32.6924 130.8 31.9893 130.375 31.1104C129.965 30.2168 129.643 29.1841 129.409 28.0122C129.174 26.8403 128.991 25.6099 128.859 24.3208C128.742 23.0317 128.669 21.728 128.64 20.4097C128.61 19.0913 128.596 17.8389 128.596 16.6523C128.596 14.3818 128.662 12.4189 128.793 10.7637C128.925 9.09375 129.101 7.68018 129.321 6.52295C129.555 5.35107 129.819 4.40625 130.112 3.68848C130.419 2.95605 130.742 2.39209 131.079 1.99658C131.416 1.58643 131.76 1.30811 132.111 1.16162C132.463 1.01514 132.807 0.941895 133.144 0.941895C133.686 0.941895 134.162 1.10303 134.572 1.42529C134.997 1.74756 135.349 2.20166 135.627 2.7876C135.92 3.35889 136.14 4.05469 136.286 4.875C136.433 5.69531 136.506 6.59619 136.506 7.57764C136.506 9.14502 136.337 10.7637 136 12.4336C135.664 14.1035 135.224 15.7734 134.682 17.4434C134.155 19.0986 133.562 20.7319 132.902 22.3433C132.243 23.9399 131.591 25.4561 130.947 26.8916C131.035 27.6094 131.167 28.2979 131.342 28.957C131.518 29.6016 131.745 30.1802 132.023 30.6929C132.302 31.1909 132.631 31.5938 133.012 31.9014C133.393 32.1943 133.833 32.3408 134.331 32.3408C134.829 32.3408 135.297 32.2017 135.737 31.9233C136.176 31.6304 136.557 31.2568 136.879 30.8027C137.202 30.334 137.451 29.8066 137.626 29.2207C137.817 28.6348 137.912 28.0342 137.912 27.4189C137.912 27.0088 137.868 26.5986 137.78 26.1885C137.707 25.7637 137.583 25.3901 137.407 25.0679C137.246 24.731 137.041 24.46 136.792 24.2549C136.542 24.0498 136.242 23.9473 135.891 23.9473C135.627 23.9473 135.422 24.0059 135.275 24.123C135.129 24.2256 135.019 24.3501 134.946 24.4966C134.873 24.6284 134.829 24.7603 134.814 24.8921C134.799 25.0239 134.792 25.1118 134.792 25.1558C134.792 25.3608 134.836 25.5659 134.924 25.771C135.012 25.9761 135.18 26.1592 135.429 26.3203C135.678 26.4961 135.803 26.7378 135.803 27.0454C135.803 27.2944 135.715 27.4922 135.539 27.6387C135.378 27.7852 135.195 27.8584 134.99 27.8584C134.697 27.8584 134.433 27.7705 134.199 27.5947C133.979 27.4189 133.789 27.1992 133.627 26.9355C133.466 26.6572 133.342 26.3643 133.254 26.0566C133.166 25.749 133.122 25.4634 133.122 25.1997C133.122 24.7749 133.195 24.3867 133.342 24.0352C133.488 23.6689 133.686 23.3613 133.935 23.1123C134.199 22.8486 134.492 22.6509 134.814 22.519C135.151 22.3726 135.502 22.2993 135.869 22.2993C136.499 22.2993 137.041 22.4458 137.495 22.7388C137.963 23.0317 138.352 23.4199 138.659 23.9033C138.967 24.3867 139.194 24.936 139.34 25.5513C139.487 26.1665 139.56 26.7891 139.56 27.4189C139.56 27.7852 139.538 28.144 139.494 28.4956C139.553 28.6128 139.648 28.7666 139.78 28.957C139.912 29.1475 140.087 29.3306 140.307 29.5063C140.527 29.6821 140.791 29.8359 141.098 29.9678C141.406 30.0996 141.765 30.1655 142.175 30.1655C142.526 30.1655 142.885 30.0337 143.251 29.77C143.632 29.4917 143.991 29.1548 144.328 28.7593C144.68 28.3491 145.002 27.917 145.295 27.4629C145.588 26.9941 145.83 26.562 146.02 26.1665C146.093 26.02 146.196 25.9102 146.328 25.8369C146.459 25.749 146.606 25.7051 146.767 25.7051C147.016 25.7051 147.214 25.793 147.36 25.9688C147.521 26.1445 147.602 26.3423 147.602 26.562C147.602 26.6499 147.573 26.7671 147.514 26.9136ZM130.529 24.0791C131.027 22.8486 131.533 21.5596 132.045 20.2119C132.558 18.8496 133.02 17.4653 133.43 16.0591C133.84 14.6528 134.177 13.2319 134.44 11.7964C134.704 10.3608 134.836 8.94727 134.836 7.55566C134.836 7.02832 134.807 6.479 134.748 5.90771C134.704 5.32178 134.616 4.78711 134.484 4.30371C134.353 3.82031 134.169 3.41748 133.935 3.09521C133.715 2.77295 133.43 2.61182 133.078 2.61182C132.961 2.61182 132.807 2.69238 132.617 2.85352C132.441 3 132.25 3.271 132.045 3.6665C131.84 4.04736 131.635 4.58203 131.43 5.27051C131.225 5.95898 131.035 6.83789 130.859 7.90723C130.698 8.96191 130.559 10.2363 130.441 11.7305C130.339 13.2246 130.288 14.9824 130.288 17.0039C130.288 17.6777 130.295 18.3662 130.31 19.0693C130.324 19.7578 130.339 20.417 130.354 21.0469C130.383 21.6768 130.412 22.2554 130.441 22.7827C130.471 23.3101 130.5 23.7422 130.529 24.0791ZM156.171 30.583C155.805 30.583 155.483 30.5537 155.205 30.4951C154.985 30.9346 154.721 31.3447 154.414 31.7256C154.106 32.0918 153.747 32.4141 153.337 32.6924C152.941 32.9707 152.495 33.1904 151.997 33.3516C151.499 33.5127 150.957 33.5933 150.371 33.5933C149.682 33.5933 149.052 33.4688 148.481 33.2197C147.91 32.9854 147.412 32.6558 146.987 32.231C146.562 31.7915 146.232 31.2715 145.998 30.6709C145.764 30.0557 145.646 29.3818 145.646 28.6494C145.646 27.7119 145.815 26.8989 146.152 26.2104C146.489 25.5073 146.877 24.9287 147.316 24.4746C147.756 24.0059 148.195 23.6616 148.635 23.4419C149.074 23.2075 149.404 23.0903 149.624 23.0903C149.873 23.0903 150.056 23.1562 150.173 23.2881C150.305 23.4199 150.371 23.5957 150.371 23.8154C150.371 24.0645 150.29 24.2549 150.129 24.3867C149.982 24.5039 149.792 24.6211 149.558 24.7383C149.323 24.8555 149.074 25.0239 148.811 25.2437C148.547 25.4487 148.298 25.7124 148.063 26.0347C147.844 26.3569 147.661 26.7378 147.514 27.1772C147.368 27.6167 147.294 28.1074 147.294 28.6494C147.294 29.1328 147.368 29.5869 147.514 30.0117C147.661 30.4219 147.873 30.7808 148.151 31.0884C148.43 31.3813 148.759 31.6157 149.14 31.7915C149.521 31.9526 149.946 32.0332 150.415 32.0332C151.25 32.0332 151.938 31.8428 152.48 31.4619C153.037 31.0664 153.461 30.5684 153.754 29.9678C152.89 29.5137 152.18 28.8691 151.623 28.0342C151.066 27.1992 150.788 26.2617 150.788 25.2217C150.788 24.3867 150.986 23.7056 151.381 23.1782C151.792 22.6509 152.326 22.3872 152.985 22.3872C153.381 22.3872 153.754 22.4824 154.106 22.6729C154.458 22.8633 154.765 23.1636 155.029 23.5737C155.307 23.9839 155.527 24.5112 155.688 25.1558C155.849 25.8003 155.93 26.5693 155.93 27.4629C155.93 27.9316 155.871 28.4224 155.754 28.9351C155.842 28.9497 155.93 28.957 156.018 28.957C156.105 28.957 156.201 28.957 156.303 28.957C156.801 28.957 157.248 28.8984 157.644 28.7812C158.039 28.6641 158.398 28.4883 158.72 28.2539C159.042 28.0195 159.328 27.7192 159.577 27.353C159.841 26.9868 160.09 26.562 160.324 26.0786C160.368 25.9907 160.463 25.9102 160.61 25.8369C160.756 25.749 160.903 25.7051 161.049 25.7051C161.24 25.7051 161.416 25.7856 161.577 25.9468C161.752 26.0933 161.84 26.291 161.84 26.54C161.84 26.6572 161.811 26.7891 161.752 26.9355C161.694 27.0674 161.635 27.1919 161.577 27.3091C161.328 27.7485 161.035 28.1733 160.698 28.5835C160.375 28.979 159.987 29.3306 159.533 29.6382C159.094 29.9312 158.596 30.1655 158.039 30.3413C157.482 30.5171 156.86 30.5977 156.171 30.583ZM152.414 25.0459C152.414 25.3242 152.451 25.6172 152.524 25.9248C152.597 26.2324 152.707 26.54 152.854 26.8477C153.015 27.1406 153.205 27.4263 153.425 27.7046C153.659 27.9683 153.93 28.1953 154.238 28.3857C154.282 28.0781 154.304 27.7778 154.304 27.4849C154.304 27.0894 154.274 26.6865 154.216 26.2764C154.157 25.8662 154.069 25.4927 153.952 25.1558C153.85 24.8042 153.718 24.5259 153.557 24.3208C153.396 24.1011 153.205 23.9912 152.985 23.9912C152.897 23.9912 152.78 24.0571 152.634 24.189C152.487 24.3208 152.414 24.6064 152.414 25.0459ZM167.575 30.5391C167.062 31.374 166.462 32.0332 165.773 32.5166C165.1 33 164.418 33.2417 163.73 33.2417C163.173 33.2417 162.675 33.1392 162.236 32.9341C161.796 32.729 161.416 32.4434 161.093 32.0771C160.771 31.6963 160.522 31.2422 160.346 30.7148C160.185 30.1875 160.104 29.5942 160.104 28.9351C160.104 27.9097 160.2 27.0015 160.39 26.2104C160.595 25.4194 160.815 24.7603 161.049 24.2329C161.284 23.6909 161.503 23.2808 161.708 23.0024C161.914 22.7241 162.016 22.585 162.016 22.585C162.089 22.4971 162.177 22.4312 162.28 22.3872C162.397 22.3433 162.514 22.3213 162.631 22.3213C162.866 22.3213 163.056 22.4092 163.203 22.585C163.364 22.7461 163.444 22.9365 163.444 23.1562C163.444 23.2441 163.422 23.332 163.378 23.4199C163.349 23.5078 163.312 23.5957 163.269 23.6836C163.195 23.8154 163.078 24.0205 162.917 24.2988C162.756 24.5625 162.587 24.9141 162.412 25.3535C162.236 25.793 162.082 26.313 161.95 26.9136C161.818 27.4995 161.752 28.1733 161.752 28.9351C161.752 29.7993 161.921 30.4585 162.258 30.9126C162.609 31.3521 163.1 31.5718 163.73 31.5718C163.994 31.5718 164.294 31.4912 164.631 31.3301C164.982 31.1543 165.319 30.8906 165.642 30.5391C165.979 30.1875 166.271 29.7407 166.521 29.1987C166.77 28.6567 166.931 28.0195 167.004 27.2871L167.333 23.5078C167.363 23.2881 167.458 23.105 167.619 22.9585C167.78 22.812 167.971 22.7388 168.19 22.7388C168.439 22.7388 168.637 22.834 168.784 23.0244C168.93 23.2002 169.003 23.4053 169.003 23.6396L168.718 27.2871C168.688 27.5947 168.696 27.9976 168.74 28.4956C168.798 28.9937 168.908 29.4844 169.069 29.9678C169.23 30.4512 169.472 30.8687 169.794 31.2202C170.117 31.5571 170.542 31.7256 171.069 31.7256C171.45 31.7256 171.823 31.6304 172.189 31.4399C172.556 31.2349 172.907 30.9712 173.244 30.6489C173.581 30.3267 173.889 29.9678 174.167 29.5723C174.46 29.1621 174.724 28.752 174.958 28.3418C175.207 27.9316 175.419 27.5435 175.595 27.1772C175.771 26.7964 175.917 26.4741 176.035 26.2104C176.108 26.0493 176.21 25.9248 176.342 25.8369C176.474 25.749 176.621 25.7051 176.782 25.7051C177.045 25.7051 177.25 25.793 177.397 25.9688C177.543 26.1445 177.617 26.335 177.617 26.54C177.617 26.6572 177.595 26.7671 177.551 26.8696C177.492 26.9868 177.375 27.2358 177.199 27.6167C177.038 27.9829 176.818 28.4077 176.54 28.8911C176.276 29.3599 175.954 29.8579 175.573 30.3853C175.192 30.9126 174.768 31.4033 174.299 31.8574C173.83 32.2969 173.317 32.6631 172.761 32.9561C172.219 33.2344 171.633 33.3735 171.003 33.3735C170.139 33.3735 169.421 33.1318 168.85 32.6484C168.278 32.1504 167.854 31.4473 167.575 30.5391ZM178.364 23.9692C178.305 24.3647 178.232 24.7383 178.144 25.0898C178.056 25.4268 177.968 25.7271 177.88 25.9907C177.807 26.2397 177.741 26.4448 177.683 26.606C177.624 26.7671 177.587 26.855 177.573 26.8696C177.426 27.2065 177.17 27.375 176.804 27.375C176.599 27.375 176.408 27.3018 176.232 27.1553C176.057 26.9941 175.969 26.7964 175.969 26.562C175.969 26.4741 175.983 26.4082 176.013 26.3643C176.042 26.3203 176.086 26.2324 176.145 26.1006C176.203 25.9688 176.276 25.749 176.364 25.4414C176.452 25.1338 176.562 24.6577 176.694 24.0132C176.445 24.0132 176.188 24.0059 175.925 23.9912C175.661 23.9766 175.419 23.9253 175.2 23.8374C174.965 23.7495 174.775 23.6104 174.628 23.4199C174.482 23.2295 174.409 22.9658 174.409 22.6289C174.409 22.3799 174.482 22.043 174.628 21.6182C174.76 21.1934 174.943 20.7759 175.178 20.3657C175.412 19.9556 175.676 19.604 175.969 19.311C176.262 19.0034 176.555 18.8496 176.848 18.8496C177.185 18.8496 177.456 18.9741 177.661 19.2231C177.88 19.4722 178.049 19.7798 178.166 20.146C178.283 20.4976 178.364 20.8711 178.408 21.2666C178.466 21.6621 178.496 22.0063 178.496 22.2993C178.745 22.2993 178.986 22.2993 179.221 22.2993C179.47 22.2847 179.704 22.2773 179.924 22.2773C180.759 22.2773 181.396 22.4604 181.835 22.8267C182.275 23.1929 182.495 23.7935 182.495 24.6284C182.495 24.9653 182.473 25.3169 182.429 25.6831C182.385 26.0493 182.333 26.4302 182.275 26.8257C182.216 27.2065 182.165 27.5874 182.121 27.9683C182.077 28.3491 182.055 28.7227 182.055 29.0889C182.055 29.6162 182.128 30.0557 182.275 30.4072C182.421 30.7441 182.604 31.0151 182.824 31.2202C183.044 31.4253 183.278 31.5718 183.527 31.6597C183.776 31.7329 184.003 31.7695 184.208 31.7695C184.838 31.7695 185.432 31.5645 185.988 31.1543C186.545 30.7441 187.058 30.2534 187.526 29.6821C187.995 29.0962 188.413 28.481 188.779 27.8364C189.16 27.1919 189.475 26.6279 189.724 26.1445C189.797 26.0127 189.899 25.9102 190.031 25.8369C190.163 25.7637 190.302 25.7271 190.449 25.7271C190.712 25.7271 190.917 25.8149 191.064 25.9907C191.21 26.1519 191.284 26.335 191.284 26.54C191.284 26.6865 191.254 26.8184 191.196 26.9355C190.859 27.5361 190.463 28.2173 190.009 28.979C189.57 29.7261 189.064 30.4292 188.493 31.0884C187.922 31.7476 187.277 32.3042 186.56 32.7583C185.856 33.2124 185.08 33.4395 184.23 33.4395C183.703 33.4395 183.205 33.3369 182.736 33.1318C182.268 32.9414 181.857 32.6631 181.506 32.2969C181.169 31.916 180.898 31.4546 180.693 30.9126C180.488 30.356 180.385 29.7334 180.385 29.0449C180.385 28.3125 180.458 27.5874 180.605 26.8696C180.751 26.1372 180.825 25.4414 180.825 24.7822C180.825 24.5039 180.759 24.2988 180.627 24.167C180.51 24.0205 180.239 23.9473 179.814 23.9473C179.609 23.9473 179.382 23.9473 179.133 23.9473C178.898 23.9473 178.642 23.9546 178.364 23.9692ZM176.892 22.3433C176.892 22.2407 176.884 22.1089 176.87 21.9478C176.87 21.772 176.855 21.6035 176.826 21.4424C176.811 21.2812 176.782 21.1421 176.738 21.0249C176.708 20.9077 176.672 20.8491 176.628 20.8491C176.584 20.8491 176.525 20.9077 176.452 21.0249C176.394 21.1274 176.328 21.2593 176.254 21.4204C176.181 21.5669 176.115 21.728 176.057 21.9038C175.998 22.0796 175.954 22.2261 175.925 22.3433H176.892Z" fill="#2E55A4"/>
</svg>
