<svg width="101" height="100" viewBox="0 0 101 100" fill="none" xmlns="http://www.w3.org/2000/svg">
<path d="M68.7295 40.6253C66.3812 40.6253 64.1291 39.6925 62.4687 38.032C60.8082 36.3715 59.8753 34.1194 59.8753 31.7712C59.8753 29.4229 58.9425 27.1708 57.282 25.5103C55.6215 23.8498 53.3694 22.917 51.0212 22.917H49.9795C47.6312 22.917 45.3791 23.8498 43.7187 25.5103C42.0582 27.1708 41.1253 29.4229 41.1253 31.7712C41.1253 34.1194 40.1925 36.3715 38.532 38.032C36.8715 39.6925 34.6194 40.6253 32.2712 40.6253C29.9229 40.6253 27.6708 41.5582 26.0103 43.2187C24.3498 44.8791 23.417 47.1312 23.417 49.4795V50.5212C23.417 52.8694 24.3498 55.1215 26.0103 56.782C27.6708 58.4425 29.9229 59.3753 32.2712 59.3753C34.6194 59.3753 36.8715 60.3082 38.532 61.9687C40.1925 63.6291 41.1253 65.8812 41.1253 68.2295C41.1253 70.5778 42.0582 72.8299 43.7187 74.4903C45.3791 76.1508 47.6312 77.0837 49.9795 77.0837H51.0212C53.3694 77.0837 55.6215 76.1508 57.282 74.4903C58.9425 72.8299 59.8753 70.5778 59.8753 68.2295C59.8753 65.8812 60.8082 63.6291 62.4687 61.9687C64.1291 60.3082 66.3812 59.3753 68.7295 59.3753C71.0778 59.3753 73.3299 58.4425 74.9903 56.782C76.6508 55.1215 77.5837 52.8694 77.5837 50.5212V49.4795C77.5837 47.1312 76.6508 44.8791 74.9903 43.2187C73.3299 41.5582 71.0778 40.6253 68.7295 40.6253Z" stroke="#1B1B1B" stroke-width="3" stroke-linecap="round" stroke-linejoin="round"/>
<path d="M70.0212 56.2607C68.3609 54.6003 67.4283 52.3484 67.4283 50.0003C67.4283 47.6523 68.3609 45.4004 70.0212 43.7399C71.6814 42.0795 72.6141 39.8276 72.6141 37.4795C72.6141 35.1314 71.6814 32.8795 70.0212 31.2191L69.2837 30.4816C67.6232 28.8214 65.3713 27.8887 63.0232 27.8887C60.6752 27.8887 58.4233 28.8214 56.7628 30.4816C55.9406 31.3039 54.9645 31.9563 53.8901 32.4014C52.8158 32.8464 51.6643 33.0755 50.5014 33.0755C49.3385 33.0755 48.187 32.8464 47.1126 32.4014C46.0383 31.9563 45.0621 31.3039 44.2399 30.4816C42.5795 28.8214 40.3276 27.8887 37.9795 27.8887C35.6314 27.8887 33.3795 28.8214 31.7191 30.4816L30.9816 31.217C29.3214 32.8774 28.3887 35.1293 28.3887 37.4774C28.3887 39.8255 29.3214 42.0774 30.9816 43.7378C31.8039 44.56 32.4563 45.5362 32.9014 46.6105C33.3464 47.6849 33.5755 48.8364 33.5755 49.9993C33.5755 51.1622 33.3464 52.3137 32.9014 53.388C32.4563 54.4624 31.8039 55.4385 30.9816 56.2607C29.3214 57.9212 28.3887 60.1731 28.3887 62.5212C28.3887 64.8692 29.3214 67.1211 30.9816 68.7816L31.717 69.5191C33.3774 71.1793 35.6293 72.112 37.9774 72.112C40.3255 72.112 42.5774 71.1793 44.2378 69.5191C45.06 68.6967 46.0362 68.0443 47.1105 67.5993C48.1849 67.1542 49.3364 66.9251 50.4993 66.9251C51.6622 66.9251 52.8137 67.1542 53.888 67.5993C54.9624 68.0443 55.9385 68.6967 56.7607 69.5191C58.4212 71.1793 60.6731 72.112 63.0212 72.112C65.3692 72.112 67.6211 71.1793 69.2816 69.5191L70.0191 68.7837C71.6793 67.1232 72.612 64.8713 72.612 62.5232C72.612 60.1752 71.6793 57.9233 70.0191 56.2628L70.0212 56.2607Z" stroke="#1B1B1B" stroke-width="3" stroke-linecap="round" stroke-linejoin="round"/>
</svg>
