<svg width="91" height="91" viewBox="0 0 91 91" fill="none" xmlns="http://www.w3.org/2000/svg">
<path d="M45.7 48.025C50.2978 48.025 54.025 44.2978 54.025 39.7C54.025 35.1022 50.2978 31.375 45.7 31.375C41.1022 31.375 37.375 35.1022 37.375 39.7C37.375 44.2978 41.1022 48.025 45.7 48.025Z" stroke="#1B1B1B" stroke-width="4" stroke-linecap="round" stroke-linejoin="round"/>
<path d="M45.7 17.5C39.8122 17.5 34.1655 19.8389 30.0022 24.0022C25.8389 28.1655 23.5 33.8122 23.5 39.7C23.5 44.9503 24.6155 48.3858 27.6625 52.1875L45.7 73L63.7375 52.1875C66.7845 48.3858 67.9 44.9503 67.9 39.7C67.9 33.8122 65.5611 28.1655 61.3978 24.0022C57.2345 19.8389 51.5878 17.5 45.7 17.5Z" stroke="#1B1B1B" stroke-width="4" stroke-linecap="round" stroke-linejoin="round"/>
</svg>
