<svg width="76" height="77" viewBox="0 0 76 77" fill="none" xmlns="http://www.w3.org/2000/svg">
<path d="M15.833 30.584C15.833 30.584 7.68992 33.7507 6.33301 44.834M60.1663 30.584C60.1663 30.584 68.3094 33.7507 69.6663 44.834M28.4997 30.584C28.4997 30.584 36.0997 32.4317 37.9997 41.6673C39.8997 32.4317 47.4997 30.584 47.4997 30.584M31.6663 54.334C31.6663 54.334 25.0163 55.5215 22.1663 63.834M44.333 54.334C44.333 54.334 50.983 55.5215 53.833 63.834" stroke="#1B1B1B" stroke-width="4" stroke-linecap="round"/>
<path d="M37.9997 57.5003C42.3719 57.5003 45.9163 53.9559 45.9163 49.5837C45.9163 45.2114 42.3719 41.667 37.9997 41.667C33.6274 41.667 30.083 45.2114 30.083 49.5837C30.083 53.9559 33.6274 57.5003 37.9997 57.5003Z" stroke="#1B1B1B" stroke-width="4" stroke-linecap="round" stroke-linejoin="round"/>
<path d="M53.833 32.167C59.0797 32.167 63.333 27.9137 63.333 22.667C63.333 17.4203 59.0797 13.167 53.833 13.167C48.5863 13.167 44.333 17.4203 44.333 22.667C44.333 27.9137 48.5863 32.167 53.833 32.167Z" stroke="#1B1B1B" stroke-width="4" stroke-linecap="round" stroke-linejoin="round"/>
<path d="M22.166 32.167C27.4127 32.167 31.666 27.9137 31.666 22.667C31.666 17.4203 27.4127 13.167 22.166 13.167C16.9193 13.167 12.666 17.4203 12.666 22.667C12.666 27.9137 16.9193 32.167 22.166 32.167Z" stroke="#1B1B1B" stroke-width="4" stroke-linecap="round" stroke-linejoin="round"/>
</svg>
