<svg width="116" height="27" viewBox="0 0 116 27" fill="none" xmlns="http://www.w3.org/2000/svg">
<g clip-path="url(#clip0_890_2635)">
<path d="M70.8285 18.9562C70.7241 19.7551 70.4719 20.5877 70.0632 21.4623C69.6589 22.3327 69.124 23.1527 68.4588 23.918C67.7936 24.6833 67.037 25.314 66.1892 25.806C65.337 26.298 64.4239 26.5461 63.4456 26.5461H56.4497V13.8177H64.2456V13.3678H56.4497V0.639383H63.9847C65.5326 0.862246 66.9109 1.55186 68.1197 2.70401C69.3328 3.85617 70.0589 5.10504 70.3024 6.45063H70.785L69.8763 0.189453H51.793V1.52663L51.8278 1.53504V25.6462L51.793 25.6546V26.9918H70.3589L71.285 18.9562H70.8198H70.8285Z" fill="#1B1B1B"/>
<path d="M4.61756 27V14.9192C5.45673 14.9192 6.21328 15.3481 6.89591 16.2101L15.2788 27H21.4051L14.2397 17.871C13.3875 16.7609 12.5961 15.9494 11.8613 15.4322C11.1265 14.915 10.2656 14.5912 9.26991 14.4608C8.27857 14.3305 6.9133 14.2632 5.17411 14.2632L11.8222 6.67326C12.9961 5.32767 14.7788 4.65488 17.1746 4.65488H21.5399V0.189223H19.0659C18.1789 0.189223 17.4224 0.386856 16.805 0.777916C16.1876 1.16898 15.6397 1.64834 15.1614 2.2076L4.60887 14.2632V0H0V27H4.61756Z" fill="#1B1B1B"/>
<path d="M47.0192 18.9562C46.9149 19.7551 46.6627 20.5877 46.254 21.4623C45.8496 22.3327 45.3148 23.1527 44.6496 23.918C43.9843 24.6833 43.2278 25.314 42.3799 25.806C41.5277 26.298 40.6146 26.5461 39.6363 26.5461H32.6404V13.8177H40.532V13.3678H32.6404V0.639383H40.1755C41.7234 0.862246 43.1017 1.55186 44.3104 2.70401C45.5235 3.85617 46.2496 5.10504 46.4931 6.45063H46.9757L46.067 0.189453H28.1055V26.9918H46.5496L47.4758 18.9562H47.0105H47.0192Z" fill="#1B1B1B"/>
<path d="M95.6385 0L87.9687 20.5832L80.0423 0H74.7334L85.1294 26.9916H86.0947L96.1298 0H95.6385Z" fill="#1B1B1B"/>
<path d="M93.56 27.0002H94.0426L97.2862 18.7333H107.761L111.169 27.0002H116L105.013 0.189453H100.16L102.13 4.99151L93.5557 26.996L93.56 27.0002ZM107.565 18.2834H97.4558L102.382 5.59282L107.561 18.2834H107.565Z" fill="#1B1B1B"/>
</g>
<defs>
<clipPath id="clip0_890_2635">
<rect width="116" height="27" fill="white"/>
</clipPath>
</defs>
</svg>
