<svg width="193" height="27" viewBox="0 0 193 27" fill="none" xmlns="http://www.w3.org/2000/svg">
<g clip-path="url(#clip0_890_2653)">
<path d="M12.4428 5.66762C14.2915 5.66762 15.8886 6.42873 17.2315 7.95337L21.8359 4.00724C20.7371 2.70075 19.3593 1.70694 17.7024 1.02582C16.0455 0.342278 14.1694 0.00292969 12.0765 0.00292969C9.73695 0.00292969 7.65402 0.468322 5.82523 1.39668C3.99644 2.32747 2.56629 3.63638 1.53977 5.32827C0.513258 7.01774 0 8.95203 0 11.1263C0 13.3005 0.478377 15.2469 1.43264 16.837C2.3869 18.4295 3.68499 19.6415 5.32194 20.4705C6.95888 21.3019 8.78269 21.7164 10.7959 21.7164C13.1952 21.7164 15.1062 21.1322 16.5289 19.9663L17.4259 21.2413H21.2255V10.2925H11.9719V14.8615H14.9717V15.276C14.0972 15.8699 13.0407 16.1656 11.8 16.1656C10.457 16.1656 9.36572 15.7414 8.52108 14.8906C7.67645 14.0398 7.25538 12.7648 7.25538 11.0633C7.25538 9.36167 7.7188 8.03579 8.64317 7.08804C9.56753 6.13786 10.8332 5.66277 12.4403 5.66277L12.4428 5.66762Z" fill="#1B1B1B"/>
<path d="M29.8888 6.76504V5.01497H23.3311V21.2455H30.2227V14.0368C30.2227 11.7026 31.4012 10.5367 33.7607 10.5367C34.2291 10.5367 34.7373 10.5779 35.2855 10.6554V4.72168C32.9061 4.72168 31.1072 5.4028 29.8863 6.76989L29.8888 6.76504Z" fill="#1B1B1B"/>
<path d="M52.8534 8.52962C52.0412 7.27403 50.9424 6.32385 49.5596 5.68152C48.1768 5.03918 46.6619 4.7168 45.015 4.7168C43.2061 4.7168 41.5742 5.07311 40.1191 5.78574C38.6665 6.49838 37.5204 7.49218 36.6883 8.76716C35.8536 10.0421 35.4375 11.4916 35.4375 13.1132C35.4375 14.7348 35.8536 16.1601 36.6883 17.4448C37.5229 18.7319 38.7014 19.7354 40.2262 20.4553C41.7511 21.1776 43.5201 21.5388 45.5332 21.5388C48.7249 21.5388 51.1542 20.6686 52.821 18.9282L49.2232 15.3966C48.6327 15.8329 48.0896 16.1383 47.5913 16.3152C47.0929 16.4946 46.4775 16.5819 45.745 16.5819C44.2003 16.5819 43.1737 16.1068 42.6655 15.1566L54.0718 13.0211C54.0718 11.2808 53.6656 9.78278 52.8509 8.52719L52.8534 8.52962ZM42.2095 11.9861C42.3117 11.0965 42.6107 10.4227 43.109 9.96942C43.6073 9.51373 44.2526 9.28588 45.0449 9.28588C45.6553 9.28588 46.1785 9.43859 46.6146 9.74642C47.0506 10.0543 47.362 10.4639 47.5439 10.9778L42.207 11.9861H42.2095Z" fill="#1B1B1B"/>
<path d="M72.0057 8.52962C71.1935 7.27403 70.0947 6.32385 68.7119 5.68152C67.3291 5.03918 65.8143 4.7168 64.1673 4.7168C62.3585 4.7168 60.7265 5.07311 59.2715 5.78574C57.8189 6.49838 56.6728 7.49218 55.8406 8.76716C55.0059 10.0421 54.5898 11.4916 54.5898 13.1132C54.5898 14.7348 55.0059 16.1601 55.8406 17.4448C56.6753 18.7319 57.8538 19.7354 59.3786 20.4553C60.9034 21.1776 62.6724 21.5388 64.6856 21.5388C67.8772 21.5388 70.3065 20.6686 71.9733 18.9282L68.3756 15.3966C67.7851 15.8329 67.2419 16.1383 66.7436 16.3152C66.2453 16.4946 65.6299 16.5819 64.8974 16.5819C63.3526 16.5819 62.3261 16.1068 61.8178 15.1566L73.2241 13.0211C73.2241 11.2808 72.818 9.78278 72.0032 8.52719L72.0057 8.52962ZM61.3619 11.9861C61.464 11.0965 61.763 10.4227 62.2613 9.96942C62.7596 9.51373 63.4049 9.28588 64.1972 9.28588C64.8077 9.28588 65.3309 9.43859 65.7669 9.74642C66.2029 10.0543 66.5144 10.4639 66.6963 10.9778L61.3594 11.9861H61.3619Z" fill="#1B1B1B"/>
<path d="M86.2176 4.7168C85.221 4.7168 84.2966 4.87435 83.442 5.19188C82.5874 5.50942 81.835 5.9845 81.1847 6.61715V5.01494H74.627V21.2455H81.5186V13.6198C81.5186 12.4927 81.7578 11.6662 82.2361 11.1426C82.7145 10.619 83.3399 10.3572 84.1123 10.3572C85.4751 10.3572 86.1553 11.288 86.1553 13.1472V21.2479H93.0469V11.991C93.0469 9.55736 92.4216 7.73942 91.1708 6.53231C89.9201 5.3252 88.2682 4.72164 86.2151 4.72164L86.2176 4.7168Z" fill="#1B1B1B"/>
<path d="M108.549 11.3637C107.615 11.0074 106.364 10.6414 104.797 10.2657C103.394 9.92879 102.285 9.61368 101.473 9.31554C100.658 9.01739 99.9782 8.59321 99.43 8.04056C98.8819 7.4879 98.6078 6.74618 98.6078 5.8154C98.6078 4.5889 99.1161 3.59025 100.133 2.81944C101.149 2.04863 102.644 1.66323 104.615 1.66323C105.612 1.66323 106.623 1.81109 107.65 2.10923C108.676 2.40495 109.618 2.84126 110.47 3.41572L111.051 2.19892C110.216 1.62445 109.232 1.17118 108.093 0.834253C106.954 0.497328 105.796 0.330078 104.617 0.330078C102.928 0.330078 101.52 0.577318 100.394 1.0718C99.2656 1.56628 98.4259 2.23285 97.8778 3.07395C97.3296 3.91505 97.0556 4.83856 97.0556 5.84691C97.0556 7.0928 97.3869 8.08661 98.0472 8.82833C98.7075 9.57005 99.5122 10.1179 100.457 10.4742C101.401 10.8305 102.657 11.1965 104.224 11.5722C105.607 11.8897 106.703 12.1951 107.518 12.4909C108.33 12.789 109.013 13.2132 109.561 13.7658C110.109 14.3185 110.385 15.0626 110.385 15.991C110.385 17.1981 109.867 18.1774 108.831 18.9288C107.794 19.6802 106.257 20.0559 104.226 20.0559C102.824 20.0559 101.486 19.8135 100.215 19.3287C98.9442 18.8439 97.9326 18.2162 97.1802 17.4454L96.4775 18.5725C97.2699 19.4039 98.3736 20.0801 99.7863 20.6037C101.199 21.1273 102.689 21.3891 104.254 21.3891C105.94 21.3891 107.366 21.1418 108.524 20.6473C109.683 20.1529 110.542 19.4911 111.1 18.6597C111.659 17.8283 111.94 16.9097 111.94 15.9013C111.94 14.6748 111.609 13.7004 110.948 12.9781C110.288 12.2557 109.488 11.7176 108.554 11.3613L108.549 11.3637Z" fill="#1B1B1B"/>
<path d="M128.06 9.40493C127.43 8.19782 126.545 7.26946 125.407 6.615C124.268 5.96297 122.977 5.63574 121.532 5.63574C120.087 5.63574 118.707 5.97267 117.506 6.64409C116.308 7.31794 115.366 8.2463 114.686 9.43402C114.003 10.6217 113.664 11.9767 113.664 13.4989C113.664 15.0211 114.003 16.3834 114.686 17.5784C115.366 18.7758 116.308 19.7042 117.506 20.3683C118.704 21.0325 120.047 21.3621 121.532 21.3621C123.017 21.3621 124.231 21.0349 125.359 20.3828C126.488 19.7308 127.378 18.8194 128.028 17.6535V27.0001H129.553V5.75694H128.058V9.40736L128.06 9.40493ZM127.191 16.8827C126.633 17.8717 125.868 18.6449 124.903 19.1976C123.937 19.7526 122.845 20.029 121.625 20.029C120.404 20.029 119.312 19.7526 118.346 19.1976C117.379 18.6449 116.617 17.8717 116.058 16.8827C115.5 15.8938 115.219 14.7666 115.219 13.5013C115.219 12.2361 115.498 11.1089 116.058 10.12C116.617 9.13103 117.379 8.36022 118.346 7.80515C119.312 7.25249 120.404 6.97374 121.625 6.97374C122.845 6.97374 123.937 7.25007 124.903 7.80515C125.87 8.36022 126.633 9.13103 127.191 10.12C127.749 11.1089 128.03 12.2361 128.03 13.5013C128.03 14.7666 127.751 15.8962 127.191 16.8827Z" fill="#1B1B1B"/>
<path d="M145.355 14.0054C145.355 15.8452 144.831 17.3092 143.785 18.3951C142.738 19.4835 141.318 20.0264 139.529 20.0264C137.862 20.0264 136.572 19.5707 135.657 18.6618C134.743 17.7528 134.285 16.4269 134.285 14.6865V5.75684H132.76V14.8053C132.76 16.9214 133.35 18.543 134.529 19.6725C135.707 20.7997 137.334 21.3644 139.41 21.3644C140.812 21.3644 142.033 21.0639 143.07 20.4603C144.106 19.8568 144.889 19.0108 145.419 17.9249V21.2481H146.884V5.75684H145.359V14.0054H145.355Z" fill="#1B1B1B"/>
<path d="M162.922 9.34726C162.272 8.18136 161.383 7.26997 160.254 6.61793C159.125 5.9659 157.85 5.63867 156.427 5.63867C155.004 5.63867 153.601 5.97075 152.401 6.63248C151.202 7.29663 150.26 8.22499 149.58 9.4224C148.897 10.6198 148.559 11.9796 148.559 13.5019C148.559 15.0241 148.897 16.379 149.58 17.5668C150.26 18.7545 151.202 19.6828 152.401 20.3567C153.599 21.0305 154.942 21.365 156.427 21.365C157.912 21.365 159.163 21.0378 160.301 20.3858C161.44 19.7337 162.324 18.803 162.955 17.5958V21.2463H164.45V5.75744H162.925V9.34726H162.922ZM162.083 16.8832C161.525 17.8722 160.76 18.6454 159.795 19.1981C158.829 19.7531 157.737 20.0295 156.517 20.0295C155.296 20.0295 154.204 19.7531 153.238 19.1981C152.271 18.6454 151.509 17.8722 150.95 16.8832C150.392 15.8943 150.111 14.7671 150.111 13.5019C150.111 12.2366 150.39 11.1095 150.95 10.1205C151.509 9.13153 152.271 8.36073 153.238 7.80565C154.204 7.253 155.296 6.97425 156.517 6.97425C157.737 6.97425 158.829 7.25058 159.795 7.80565C160.762 8.36073 161.525 9.13153 162.083 10.1205C162.641 11.1095 162.922 12.2366 162.922 13.5019C162.922 14.7671 162.643 15.8967 162.083 16.8832Z" fill="#1B1B1B"/>
<path d="M175.365 7.09302V5.63867C173.88 5.63867 172.619 5.94166 171.582 6.54279C170.546 7.14635 169.783 8.01169 169.295 9.13881V5.75744H167.83V21.2463H169.355V13.1771C169.355 11.2597 169.853 9.75933 170.85 8.68311C171.846 7.60447 173.229 7.06636 174.998 7.06636L175.365 7.09545V7.09302Z" fill="#1B1B1B"/>
<path d="M185.78 19.4787C184.895 19.8447 183.936 20.0265 182.897 20.0265C181.27 20.0265 179.878 19.612 178.719 18.7806C177.56 17.9492 176.788 16.8221 176.402 15.3993L189.851 12.8469C189.789 11.4822 189.428 10.2509 188.77 9.15284C188.11 8.05481 187.225 7.19432 186.116 6.57137C185.008 5.94843 183.762 5.63574 182.382 5.63574C180.897 5.63574 179.566 5.97267 178.385 6.64409C177.207 7.31794 176.285 8.2463 175.624 9.43402C174.964 10.6217 174.633 11.9767 174.633 13.4989C174.633 15.0211 174.984 16.3761 175.684 17.5638C176.387 18.7516 177.361 19.6799 178.612 20.3538C179.863 21.0276 181.28 21.3621 182.867 21.3621C184.108 21.3621 185.247 21.1512 186.283 20.7246C187.32 20.3004 188.184 19.6726 188.874 18.8412L187.99 17.862C187.399 18.5746 186.662 19.1127 185.777 19.4787H185.78ZM176.128 13.3826C176.128 12.1367 176.392 11.0241 176.92 10.0448C177.448 9.06558 178.191 8.30447 179.147 7.75909C180.104 7.21614 181.181 6.94223 182.382 6.94223C183.438 6.94223 184.395 7.16523 185.249 7.60881C186.104 8.05239 186.794 8.66321 187.322 9.43402C187.85 10.2048 188.187 11.0556 188.329 11.9864L176.19 14.3012C176.15 13.9061 176.128 13.5983 176.128 13.3802V13.3826Z" fill="#1B1B1B"/>
<path d="M191.878 5.09074C191.878 4.58414 191.542 4.40234 190.942 4.40234H190.037V6.73173H190.511V5.7355H190.807L191.39 6.73173H191.888L191.248 5.71368C191.602 5.68702 191.876 5.51977 191.876 5.09074H191.878ZM190.513 5.37433V4.76351H190.914C191.131 4.76351 191.405 4.80229 191.405 5.05195C191.405 5.33555 191.206 5.37433 190.937 5.37433H190.513Z" fill="#1B1B1B"/>
<path d="M190.859 3.95371C191.779 3.95371 192.526 4.68088 192.526 5.57288C192.526 6.46488 191.779 7.19448 190.859 7.19448C189.94 7.19448 189.195 6.46731 189.195 5.57288C189.195 4.67846 189.943 3.95371 190.859 3.95371ZM190.859 3.49316C189.681 3.49316 188.722 4.42637 188.722 5.57288C188.722 6.7194 189.681 7.65503 190.859 7.65503C192.038 7.65503 193 6.72182 193 5.57288C193 4.42395 192.04 3.49316 190.859 3.49316Z" fill="#1B1B1B"/>
</g>
<defs>
<clipPath id="clip0_890_2653">
<rect width="193" height="27" fill="white"/>
</clipPath>
</defs>
</svg>
