<svg width="145" height="27" viewBox="0 0 145 27" fill="none" xmlns="http://www.w3.org/2000/svg">
<g clip-path="url(#clip0_890_2679)">
<path d="M18.34 21.088L17.0736 26.9961H0C0.345358 26.4866 1.89587 26.2779 1.89587 24.509V3.36398C1.89587 1.59511 0.345358 1.38639 0 0.876953H8.53682C8.19146 1.38639 6.64095 1.59511 6.64095 3.36398V26.5291H10.4363C15.2677 26.5291 16.5196 24.0986 18.34 21.088Z" fill="#1B1B1B"/>
<path d="M21.4372 0C21.4372 0 19.919 3.5059 19.2427 4.31958L17.8721 4.58844C18.4405 3.12736 18.9657 0.725236 18.9657 0.251179L21.4408 0L21.4372 0Z" fill="#1B1B1B"/>
<path d="M43.7099 26.9961H34.8565C35.2019 26.4866 36.407 26.1788 35.7019 24.509L33.4031 19.068H24.2475L22.3049 24.509C21.6753 26.2708 22.9704 26.4866 23.3122 26.9961H19.042C19.3874 26.4866 21.2041 26.2531 21.8264 24.509L30.2733 0.876953H30.7482L40.76 24.509C41.4795 26.2071 43.3681 26.4866 43.7099 26.9961ZM33.2089 18.601L28.4458 7.32271L24.4202 18.601H33.2125H33.2089Z" fill="#1B1B1B"/>
<path d="M62.6031 0.876953C62.2577 1.38639 60.441 1.61988 59.8187 3.36398L51.379 26.9961H50.9041L40.8923 3.36398C40.1728 1.66587 38.2877 1.38639 37.9424 0.876953H46.7958C46.4504 1.38639 45.2453 1.69417 45.9504 3.36398L53.2101 20.5503L59.3474 3.36398C59.9769 1.60219 58.6818 1.38639 58.3401 0.876953H62.6103H62.6031Z" fill="#1B1B1B"/>
<path d="M95.3876 20.1576L93.8083 26.9996H64.0859C64.4313 26.4902 65.9818 26.2814 65.9818 24.5126V3.36752C65.9818 1.59865 64.4313 1.38992 64.0859 0.880491H80.843L82.1093 6.78851C80.289 3.7779 79.0335 1.34747 74.2056 1.34747H70.7269V13.1635H74.846C76.6375 13.1564 76.8498 10.7472 77.3678 10.2095V16.5845C76.8498 16.0468 76.6375 13.6305 74.8388 13.6305H70.7269V26.5326H87.1674C92.0779 26.5326 94.0385 22.9737 95.3876 20.1576ZM107.4 0.876953C107.054 1.38639 105.504 1.59511 105.504 3.36398V26.9961H105.029L86.0593 3.15172V22.022C86.0593 23.7909 87.6099 23.9996 87.9552 24.509H83.685C84.0304 23.9996 85.5809 23.7909 85.5809 22.022V3.36398C85.5809 1.59511 84.0304 1.38639 83.685 0.876953H89.5345L105.029 19.8569V3.36398C105.029 1.59511 103.475 1.38639 103.133 0.876953H107.403H107.4Z" fill="#1B1B1B"/>
<path d="M116.822 3.36398V24.509C116.822 26.2779 118.372 26.4866 118.717 26.9961H110.181C110.526 26.4866 112.077 26.2779 112.077 24.509V3.36398C112.077 1.59511 110.526 1.38639 110.181 0.876953H118.717C118.372 1.38639 116.822 1.59511 116.822 3.36398Z" fill="#1B1B1B"/>
<path d="M145 26.9961H138.031C138.031 26.9961 137.071 25.0998 134.567 20.1541C133.689 18.4241 132.243 15.18 129.509 15.18H128.243V24.509C128.243 26.2779 129.793 26.4866 130.138 26.9961H121.602C121.947 26.4866 123.497 26.2779 123.497 24.509V3.36398C123.497 1.59511 121.947 1.38639 121.602 0.876953H130.138C137.409 0.876953 140.888 3.6753 140.888 8.33804C140.888 11.5574 138.297 14.3097 132.916 15.0067C135.758 15.5586 137.808 16.9383 139.186 19.5456C140.168 21.4029 141.003 22.9772 141.816 24.5267L141.805 24.509C142.841 26.4937 144.654 26.4866 145 26.9961ZM130.138 14.713C134.25 14.713 135.83 13.0043 135.83 8.33804C135.83 3.67176 134.25 1.3404 130.138 1.3404H128.243V14.7095H130.138V14.713Z" fill="#1B1B1B"/>
</g>
<defs>
<clipPath id="clip0_890_2679">
<rect width="145" height="27" fill="white"/>
</clipPath>
</defs>
</svg>
