<svg width="301" height="44" viewBox="0 0 301 44" fill="none" xmlns="http://www.w3.org/2000/svg">
<g clip-path="url(#clip0_627_10826)">
<path d="M19.4056 9.08496C22.2888 9.08496 24.7796 10.3051 26.874 12.7493L34.0549 6.42321C32.3413 4.32878 30.1925 2.73561 27.6084 1.6437C25.0244 0.547915 22.0984 0.00390625 18.8344 0.00390625C15.1856 0.00390625 11.9371 0.749975 9.08494 2.23823C6.23278 3.73037 4.00235 5.82868 2.40141 8.54096C0.80047 11.2493 0 14.3502 0 17.8357C0 21.3213 0.746069 24.4416 2.23432 26.9906C3.72257 29.5436 5.74706 31.4865 8.30002 32.8154C10.853 34.1482 13.6974 34.8127 16.8371 34.8127C20.5791 34.8127 23.5595 33.8762 25.7782 32.0072L27.1771 34.0511H33.1029V16.499H18.6712V23.8237H23.3496V24.4882C21.9857 25.4402 20.3382 25.9143 18.403 25.9143C16.3086 25.9143 14.6066 25.2343 13.2894 23.8703C11.9721 22.5064 11.3154 20.4625 11.3154 17.7347C11.3154 15.0069 12.0381 12.8814 13.4798 11.362C14.9214 9.83881 16.8954 9.07719 19.4017 9.07719L19.4056 9.08496Z" fill="#1B1B1B"/>
<path d="M46.6141 10.846V8.04049H36.3867V34.0597H47.1348V22.5034C47.1348 18.7613 48.9727 16.8923 52.6526 16.8923C53.3831 16.8923 54.1758 16.9583 55.0307 17.0827V7.57031C51.3198 7.57031 48.5142 8.66222 46.6102 10.8538L46.6141 10.846Z" fill="#1B1B1B"/>
<path d="M82.4292 13.6748C81.1624 11.662 79.4488 10.1388 77.2922 9.10904C75.1356 8.07931 72.773 7.5625 70.2045 7.5625C67.3834 7.5625 64.8382 8.13371 62.569 9.27613C60.3035 10.4185 58.5161 12.0117 57.2182 14.0556C55.9165 16.0996 55.2676 18.4232 55.2676 21.0228C55.2676 23.6224 55.9165 25.9072 57.2182 27.9667C58.52 30.0301 60.3579 31.6388 62.736 32.7928C65.1141 33.9508 67.873 34.5298 71.0127 34.5298C75.9904 34.5298 79.7791 33.1348 82.3786 30.3448L76.7676 24.6832C75.8466 25.3827 74.9995 25.8723 74.2224 26.1559C73.4452 26.4435 72.4855 26.5834 71.343 26.5834C68.9339 26.5834 67.3329 25.8218 66.5402 24.2985L84.3293 20.8752C84.3293 18.0852 83.6959 15.6838 82.4253 13.6709L82.4292 13.6748ZM65.8291 19.2159C65.9884 17.7899 66.4547 16.7096 67.2319 15.983C68.009 15.2525 69.0155 14.8872 70.2511 14.8872C71.2031 14.8872 72.0192 15.132 72.6992 15.6255C73.3792 16.119 73.8649 16.7757 74.1486 17.5995L65.8252 19.2159H65.8291Z" fill="#1B1B1B"/>
<path d="M112.298 13.6748C111.032 11.662 109.318 10.1388 107.161 9.10904C105.005 8.07931 102.642 7.5625 100.074 7.5625C97.2526 7.5625 94.7074 8.13371 92.4381 9.27613C90.1727 10.4185 88.3852 12.0117 87.0874 14.0556C85.7856 16.0996 85.1367 18.4232 85.1367 21.0228C85.1367 23.6224 85.7856 25.9072 87.0874 27.9667C88.3891 30.0301 90.2271 31.6388 92.6052 32.7928C94.9833 33.9508 97.7422 34.5298 100.882 34.5298C105.86 34.5298 109.648 33.1348 112.248 30.3448L106.637 24.6832C105.716 25.3827 104.869 25.8723 104.092 26.1559C103.314 26.4435 102.355 26.5834 101.212 26.5834C98.803 26.5834 97.2021 25.8218 96.4094 24.2985L114.198 20.8752C114.198 18.0852 113.565 15.6838 112.294 13.6709L112.298 13.6748ZM95.6983 19.2159C95.8576 17.7899 96.3239 16.7096 97.101 15.983C97.8782 15.2525 98.8846 14.8872 100.12 14.8872C101.072 14.8872 101.888 15.132 102.568 15.6255C103.248 16.119 103.734 16.7757 104.018 17.5995L95.6944 19.2159H95.6983Z" fill="#1B1B1B"/>
<path d="M134.463 7.5625C132.909 7.5625 131.467 7.81508 130.135 8.32411C128.802 8.83315 127.628 9.59476 126.614 10.6089V8.04045H116.387V34.0596H127.135V21.835C127.135 20.0281 127.508 18.703 128.254 17.8637C129 17.0244 129.975 16.6047 131.18 16.6047C133.305 16.6047 134.366 18.0968 134.366 21.0772V34.0635H145.114V19.2237C145.114 15.3224 144.139 12.4081 142.188 10.4729C140.238 8.53783 137.661 7.57027 134.459 7.57027L134.463 7.5625Z" fill="#1B1B1B"/>
<path d="M169.291 18.2174C167.834 17.6461 165.884 17.0594 163.439 16.4571C161.252 15.917 159.523 15.4118 158.256 14.9339C156.985 14.4559 155.924 13.7759 155.069 12.89C154.215 12.004 153.787 10.8149 153.787 9.32281C153.787 7.35661 154.58 5.75567 156.165 4.51999C157.751 3.28431 160.082 2.66647 163.156 2.66647C164.71 2.66647 166.288 2.90351 167.889 3.38146C169.49 3.85552 170.958 4.55496 172.287 5.47589L173.193 3.52523C171.891 2.6043 170.356 1.87766 168.58 1.33754C166.805 0.797415 164.998 0.529297 163.16 0.529297C160.525 0.529297 158.33 0.925646 156.573 1.71834C154.813 2.51104 153.504 3.57963 152.649 4.928C151.794 6.27636 151.366 7.75684 151.366 9.37332C151.366 11.3706 151.883 12.9638 152.913 14.1528C153.943 15.3419 155.198 16.2201 156.67 16.7913C158.143 17.3625 160.102 17.9492 162.546 18.5515C164.702 19.0606 166.412 19.5502 167.683 20.0242C168.949 20.5022 170.014 21.1822 170.869 22.0682C171.724 22.9541 172.155 24.147 172.155 25.6353C172.155 27.5704 171.347 29.1403 169.731 30.3449C168.114 31.5494 165.717 32.1517 162.55 32.1517C160.362 32.1517 158.275 31.7632 156.294 30.986C154.312 30.2089 152.734 29.2024 151.561 27.9668L150.465 29.7737C151.701 31.1065 153.422 32.1906 155.625 33.0299C157.828 33.8693 160.152 34.2889 162.592 34.2889C165.223 34.2889 167.446 33.8926 169.253 33.0999C171.059 32.3072 172.4 31.2464 173.27 29.9135C174.141 28.5807 174.58 27.108 174.58 25.4915C174.58 23.5253 174.063 21.9632 173.033 20.8053C172.004 19.6473 170.756 18.7847 169.299 18.2135L169.291 18.2174Z" fill="#1B1B1B"/>
<path d="M199.722 15.0775C198.738 13.1424 197.359 11.6542 195.583 10.605C193.807 9.55974 191.795 9.03516 189.541 9.03516C187.287 9.03516 185.134 9.57528 183.261 10.6516C181.392 11.7319 179.924 13.2201 178.863 15.1242C177.798 17.0282 177.27 19.2003 177.27 21.6406C177.27 24.0809 177.798 26.2647 178.863 28.1804C179.924 30.0999 181.392 31.5882 183.261 32.6529C185.13 33.7176 187.225 34.2461 189.541 34.2461C191.857 34.2461 193.749 33.7215 195.509 32.6762C197.27 31.6309 198.657 30.1699 199.671 28.3008V43.2844H202.049V9.22945H199.718V15.0814L199.722 15.0775ZM198.365 27.0652C197.495 28.6506 196.302 29.8901 194.798 30.7761C193.291 31.6659 191.589 32.1089 189.685 32.1089C187.781 32.1089 186.079 31.6659 184.571 30.7761C183.063 29.8901 181.874 28.6506 181.004 27.0652C180.133 25.4798 179.694 23.6729 179.694 21.6445C179.694 19.6161 180.129 17.8092 181.004 16.2238C181.874 14.6384 183.063 13.4028 184.571 12.5129C186.079 11.627 187.781 11.1801 189.685 11.1801C191.589 11.1801 193.291 11.6231 194.798 12.5129C196.306 13.4028 197.495 14.6384 198.365 16.2238C199.236 17.8092 199.675 19.6161 199.675 21.6445C199.675 23.6729 199.24 25.4836 198.365 27.0652Z" fill="#1B1B1B"/>
<path d="M226.691 22.4518C226.691 25.4011 225.875 27.7481 224.243 29.489C222.611 31.2337 220.396 32.1041 217.606 32.1041C215.007 32.1041 212.994 31.3736 211.568 29.9164C210.142 28.4592 209.427 26.3337 209.427 23.5437V9.22852H207.049V23.7341C207.049 27.1264 207.97 29.726 209.808 31.5368C211.646 33.3436 214.183 34.249 217.42 34.249C219.608 34.249 221.512 33.7672 223.128 32.7996C224.745 31.8321 225.965 30.4759 226.792 28.7351V34.0625H229.077V9.22852H226.699V22.4518H226.691Z" fill="#1B1B1B"/>
<path d="M254.091 14.9843C253.077 13.1152 251.69 11.6542 249.929 10.6089C248.169 9.56364 246.18 9.03906 243.961 9.03906C241.742 9.03906 239.554 9.57141 237.681 10.6322C235.812 11.6969 234.343 13.1852 233.283 15.1048C232.218 17.0243 231.689 19.2043 231.689 21.6445C231.689 24.0848 232.218 26.2569 233.283 28.161C234.343 30.065 235.812 31.5532 237.681 32.6335C239.55 33.7137 241.645 34.25 243.961 34.25C246.277 34.25 248.227 33.7254 250.003 32.6801C251.779 31.6348 253.158 30.1427 254.141 28.2076V34.0596H256.473V9.22947H254.095V14.9843H254.091ZM252.781 27.0652C251.911 28.6506 250.718 29.8901 249.214 30.7761C247.707 31.6659 246.005 32.1089 244.101 32.1089C242.197 32.1089 240.495 31.6659 238.987 30.7761C237.479 29.8901 236.29 28.6506 235.42 27.0652C234.549 25.4798 234.11 23.6729 234.11 21.6445C234.11 19.6161 234.545 17.8093 235.42 16.2239C236.29 14.6385 237.479 13.4028 238.987 12.5129C240.495 11.627 242.197 11.1801 244.101 11.1801C246.005 11.1801 247.707 11.6231 249.214 12.5129C250.722 13.4028 251.911 14.6385 252.781 16.2239C253.652 17.8093 254.091 19.6161 254.091 21.6445C254.091 23.6729 253.656 25.4837 252.781 27.0652Z" fill="#1B1B1B"/>
<path d="M273.497 11.3705V9.03906C271.181 9.03906 269.215 9.52478 267.598 10.4885C265.982 11.456 264.793 12.8432 264.031 14.6501V9.22947H261.746V34.0596H264.124V21.1238C264.124 18.0502 264.901 15.6449 266.456 13.9196C268.01 12.1904 270.167 11.3278 272.925 11.3278L273.497 11.3744V11.3705Z" fill="#1B1B1B"/>
<path d="M289.738 31.2268C288.359 31.8136 286.863 32.105 285.243 32.105C282.705 32.105 280.533 31.4405 278.726 30.1077C276.919 28.7749 275.715 26.968 275.112 24.6871L296.088 20.5953C295.991 18.4076 295.427 16.4337 294.401 14.6734C293.372 12.9132 291.992 11.5337 290.263 10.5351C288.534 9.53642 286.591 9.03516 284.438 9.03516C282.122 9.03516 280.047 9.57528 278.205 10.6516C276.368 11.7319 274.93 13.2201 273.9 15.1242C272.87 17.0282 272.354 19.2003 272.354 21.6406C272.354 24.0809 272.901 26.253 273.993 28.1571C275.089 30.0611 276.608 31.5493 278.559 32.6296C280.51 33.7098 282.721 34.2461 285.196 34.2461C287.131 34.2461 288.907 33.908 290.523 33.2241C292.14 32.5441 293.488 31.5377 294.565 30.2049L293.185 28.635C292.264 29.7774 291.114 30.6401 289.735 31.2268H289.738ZM274.685 21.4541C274.685 19.4568 275.097 17.6732 275.921 16.1034C276.744 14.5335 277.902 13.3134 279.395 12.4391C280.887 11.5687 282.565 11.1296 284.438 11.1296C286.086 11.1296 287.578 11.4871 288.911 12.1982C290.244 12.9093 291.32 13.8885 292.144 15.1242C292.968 16.3598 293.492 17.7238 293.714 19.2159L274.782 22.9268C274.72 22.2934 274.685 21.7999 274.685 21.4502V21.4541Z" fill="#1B1B1B"/>
<path d="M299.251 8.1602C299.251 7.34807 298.726 7.05664 297.789 7.05664H296.379V10.7909H297.117V9.19382H297.58L298.489 10.7909H299.266L298.267 9.15885C298.819 9.1161 299.247 8.84798 299.247 8.1602H299.251ZM297.121 8.61484V7.63562H297.747C298.085 7.63562 298.512 7.69779 298.512 8.09803C298.512 8.55266 298.201 8.61484 297.782 8.61484H297.121Z" fill="#1B1B1B"/>
<path d="M297.662 6.33791C299.096 6.33791 300.262 7.50364 300.262 8.93361C300.262 10.3636 299.096 11.5332 297.662 11.5332C296.228 11.5332 295.066 10.3675 295.066 8.93361C295.066 7.49975 296.232 6.33791 297.662 6.33791ZM297.662 5.59961C295.824 5.59961 294.328 7.09563 294.328 8.93361C294.328 10.7716 295.824 12.2715 297.662 12.2715C299.5 12.2715 301 10.7755 301 8.93361C301 7.09175 299.504 5.59961 297.662 5.59961Z" fill="#1B1B1B"/>
</g>
<defs>
<clipPath id="clip0_627_10826">
<rect width="301" height="43.2837" fill="white"/>
</clipPath>
</defs>
</svg>
