<svg width="127" height="34" viewBox="0 0 127 34" fill="none" xmlns="http://www.w3.org/2000/svg">
<g clip-path="url(#clip0_627_10738)">
<path d="M7.59941 0H22.8452L30.4916 33.6617H21.8366L20.3925 26.8799H10.1023L8.65819 33.6617H0L7.59941 0ZM18.6602 18.9484L15.3429 3.60862H15.1017L11.8314 18.9484H18.6602Z" fill="#1B1B1B"/>
<path d="M33.1816 0H41.5986V33.6617H33.1816V0Z" fill="#1B1B1B"/>
<path d="M51.8423 34C49.5023 34 47.6573 33.3359 46.3134 32.0046C44.9665 30.6733 44.293 28.9348 44.293 26.7859C44.293 25.4703 44.5561 24.2455 45.0855 23.1084C45.6149 21.9713 46.3855 20.9595 47.3941 20.0792C48.4028 19.199 49.637 18.4535 51.0967 17.8427C52.5565 17.2349 54.1979 16.5771 56.0273 16.3516H45.8811V8.6582H60.6445C63.0816 8.6582 64.9329 9.29097 66.1984 10.5565C67.464 11.822 68.0967 13.6733 68.0967 16.1104V33.6617H59.6797V28.8032C59.2913 30.1032 58.0508 31.7133 56.7227 32.6249C55.3914 33.5395 53.7656 33.9969 51.8423 33.9969V34ZM56.0273 28.0859C58.4643 28.0859 59.6829 26.9645 59.6829 24.7185V18.2749C59.6829 16.9937 59.0407 16.3516 57.7595 16.3516H57.2301C56.588 16.8653 55.9646 17.4323 55.3538 18.0588C54.7429 18.6853 54.201 19.34 53.7186 20.0291C53.2362 20.7183 52.8541 21.4481 52.5659 22.2187C52.2777 22.9893 52.1336 23.7756 52.1336 24.5744C52.1336 25.7271 52.4688 26.6011 53.1422 27.1963C53.8157 27.7914 54.7774 28.0859 56.0273 28.0859Z" fill="#1B1B1B"/>
<path d="M70.9609 0H79.3779V6.44352H70.9609V0ZM70.9609 8.65506H79.3779V33.6617H70.9609V8.65506Z" fill="#1B1B1B"/>
<path d="M82.55 33.6621V8.65548H90.967V17.5517C91.1894 14.5383 92.0728 12.3017 93.1315 10.842C94.1903 9.38221 95.6156 8.65234 97.4105 8.65234H101.016V16.5869H95.9664C92.6303 16.5869 90.9639 18.3505 90.9639 21.8777V33.659H82.5469L82.55 33.6621Z" fill="#1B1B1B"/>
<path d="M115.445 33.6607C111.31 33.6607 108.096 32.555 105.803 30.3434C103.51 28.1319 102.363 25.0213 102.363 21.0149C102.363 17.0084 103.453 13.9449 105.634 11.7333C107.814 9.52178 110.89 8.41602 114.868 8.41602C116.632 8.41602 118.201 8.63216 119.579 9.06444C120.958 9.49672 122.129 10.0982 123.091 10.8688C124.053 11.6393 124.789 12.5509 125.302 13.6097C125.816 14.6685 126.073 15.8055 126.073 17.0241C126.073 18.2426 125.81 19.5175 125.281 20.7517C124.751 21.9859 124.006 22.9413 123.044 23.6117H111.263C111.999 25.0213 113.828 25.7261 116.745 25.7261H124.967V33.6607H115.445ZM111.021 22.9382C112.08 22.7471 113.033 22.4652 113.881 22.0956C114.73 21.7259 115.46 21.3187 116.071 20.8676C116.679 20.4197 117.152 19.953 117.49 19.4737C117.825 18.9913 117.994 18.5277 117.994 18.0797C117.994 17.5973 117.785 17.1901 117.368 16.8518C116.951 16.5166 116.262 16.3475 115.3 16.3475C113.856 16.3475 112.744 16.7641 111.958 17.5973C111.172 18.4306 110.78 19.6334 110.78 21.2028C110.78 21.8137 110.859 22.39 111.021 22.9351V22.9382Z" fill="#1B1B1B"/>
</g>
<defs>
<clipPath id="clip0_627_10738">
<rect width="126.073" height="34" fill="white"/>
</clipPath>
</defs>
</svg>
