<svg width="290" height="39" viewBox="0 0 290 39" fill="none" xmlns="http://www.w3.org/2000/svg">
<g clip-path="url(#clip0_627_10758)">
<path d="M0 0.695312H29.4852V14.5239H28.7903C28.7527 12.5207 28.4209 10.6614 27.8012 8.94615C27.1752 7.23088 26.3864 5.83487 25.4411 4.76439C24.4958 3.69391 23.4817 2.86131 22.4112 2.27286C21.3407 1.68441 20.3203 1.39019 19.3563 1.39019V36.8225H23.9637V37.5173H5.52142V36.8225H10.1289V1.39645C9.3401 1.39645 8.52628 1.57799 7.68743 1.93482C6.84857 2.29164 6.01597 2.84879 5.1959 3.59375C4.37582 4.34496 3.63087 5.22764 2.97356 6.24804C2.30998 7.26844 1.77787 8.50168 1.36471 9.94777C0.951538 11.3939 0.732434 12.9213 0.694873 14.5302H0V0.695312Z" fill="#1B1B1B"/>
<path d="M69.6867 1.39605H65.0792V36.8283H69.6867V37.5232H51.3007V36.8283H55.8581V17.1528H44.3896V36.8283H48.997V37.5232H30.5547V36.8283H35.1621V1.39605H30.5547V0.701172H48.997V1.39605H44.3896V16.4579H55.8581V1.39605H51.3007V0.701172H69.6867V1.39605Z" fill="#1B1B1B"/>
<path d="M88.4489 1.39605H84.5864V16.4579H86.621C89.3378 16.4579 90.7276 14.9555 90.8027 11.9569H91.4475V21.66H90.8027C90.7276 18.6615 89.3378 17.159 86.621 17.159H84.5864V36.8346H88.4489C91.8794 36.8346 94.6402 35.7829 96.731 33.6732C98.8219 31.5636 99.9049 28.2394 99.9738 23.7008H100.669V37.5295H70.7578V36.8346H75.3653V1.39605H70.7578V0.701172H100.669V14.5298H99.9738C99.8987 9.99119 98.8219 6.66707 96.731 4.55741C94.6402 2.44775 91.8794 1.39605 88.4489 1.39605Z" fill="#1B1B1B"/>
<path d="M151.17 32.0018H151.865V33.1286C151.865 34.775 151.364 36.0333 150.362 36.9097C149.361 37.7861 148.09 38.2243 146.556 38.2243C144.879 38.2243 143.232 37.7047 141.623 36.6718C140.015 35.6326 138.838 34.2053 138.086 32.3836L131.814 17.159H129.886V36.8346H134.493V37.5295H116.051V36.8346H120.658V1.39605H116.051V0.701172H140.065C142.318 0.701172 144.246 1.50247 145.855 3.11132C147.464 4.72017 148.265 6.66081 148.265 8.92697C148.265 11.1931 147.464 13.1338 145.855 14.7426C144.246 16.3515 142.318 17.1528 140.065 17.1528H133.848C136.603 18.6928 139.564 19.4565 142.744 19.4565L148.747 34.0926C148.998 34.6999 149.442 34.9691 150.087 34.8939C150.406 34.8251 150.669 34.6623 150.863 34.4119C151.057 34.1615 151.158 33.8735 151.158 33.5543V32.0018H151.17ZM129.892 16.4579H131.551C133.623 16.4579 135.395 15.7255 136.859 14.2606C138.324 12.7957 139.057 11.0178 139.057 8.92697C139.057 6.83609 138.324 5.05821 136.859 3.59335C135.395 2.12848 133.623 1.39605 131.551 1.39605H129.892V16.4579Z" fill="#1B1B1B"/>
<path d="M170.839 1.39605H166.231V36.8283H170.839V37.5232H152.396V36.8283H157.004V1.39605H152.396V0.701172H170.839V1.39605Z" fill="#1B1B1B"/>
<path d="M190.351 0.695312C193.067 0.695312 195.521 1.22116 197.719 2.27912C199.916 3.33082 201.694 4.72683 203.052 6.46088C204.411 8.19494 205.456 10.1606 206.189 12.3579C206.921 14.5552 207.29 16.8089 207.29 19.1126C207.29 21.4163 206.921 23.6699 206.189 25.8673C205.456 28.0646 204.411 30.0302 203.052 31.7643C201.694 33.4983 199.916 34.8943 197.719 35.946C195.521 36.9977 193.061 37.5299 190.351 37.5299H171.908V36.835H176.516V1.39645H171.908V0.701573H190.351V0.695312ZM197.212 29.9113V8.30762C197.212 6.3795 196.542 4.74561 195.202 3.40594C193.862 2.06628 192.247 1.39645 190.351 1.39645H185.743V36.8287H190.351C192.247 36.8287 193.862 36.1589 195.202 34.8192C196.542 33.4796 197.212 31.8457 197.212 29.9175V29.9113Z" fill="#1B1B1B"/>
<path d="M226.234 0C227.805 0 229.289 0.212844 230.685 0.644792C232.081 1.07674 233.251 1.50243 234.196 1.93438C235.142 2.36632 235.868 2.57917 236.369 2.57917C236.87 2.57917 237.308 2.39763 237.683 2.0408C238.059 1.68397 238.247 1.2395 238.247 0.701133H238.942V14.5297H238.247C238.14 9.95359 236.957 6.51052 234.71 4.18176C232.456 1.85926 229.633 0.694873 226.24 0.694873C224.343 0.694873 222.722 1.36471 221.363 2.70437C220.005 4.04404 219.329 5.67793 219.329 7.60604V30.6057C219.329 31.6449 219.554 32.6152 219.999 33.5292C220.443 34.4432 221.019 35.1881 221.714 35.7828C222.409 36.3713 223.185 36.8471 224.043 37.2039C224.9 37.5607 225.758 37.6797 226.615 37.5545C227.473 37.4292 228.249 37.1413 228.951 36.6968C229.645 36.2523 230.221 35.5011 230.666 34.4432C231.11 33.3915 231.336 32.1144 231.336 30.612V17.159H226.728V16.4641H245.114V17.159H240.507V37.5294H239.862L237.558 31.9516C236.306 33.9862 234.797 35.545 233.026 36.6154C231.254 37.6859 228.994 38.2243 226.246 38.2243C223.498 38.2243 221.075 37.6797 218.878 36.5904C216.681 35.5011 214.89 34.0425 213.519 32.2208C212.142 30.3991 211.097 28.3583 210.383 26.111C209.669 23.8573 209.312 21.5223 209.312 19.0871C209.312 16.6519 209.669 14.3169 210.383 12.0632C211.097 9.80961 212.142 7.78133 213.519 5.97841C214.897 4.1755 216.681 2.72941 218.878 1.63389C221.075 0.54463 223.529 0 226.246 0L226.234 0Z" fill="#1B1B1B"/>
<path d="M261.103 1.39605H257.241V16.4579H259.275C261.992 16.4579 263.382 14.9555 263.457 11.9569H264.102V21.66H263.457C263.382 18.6615 261.992 17.159 259.275 17.159H257.241V36.8346H261.103C264.534 36.8346 267.294 35.7829 269.385 33.6732C271.476 31.5636 272.559 28.2394 272.628 23.7008H273.323V37.5295H243.412V36.8346H248.02V1.39605H243.412V0.701172H273.323V14.5298H272.628C272.553 9.99119 271.476 6.66707 269.385 4.55741C267.294 2.44775 264.534 1.39605 261.103 1.39605Z" fill="#1B1B1B"/>
<path d="M289.762 34.9115L281.186 38.2231V36.7145L288.078 34.1916L281.186 31.6688V30.1914L289.762 33.503V34.9115Z" fill="#1B1B1B"/>
<path d="M277.43 27.864C277.43 27.3507 277.843 26.9375 278.356 26.9375C278.87 26.9375 279.283 27.3507 279.283 27.864C279.283 28.3773 278.87 28.7905 278.356 28.7905C277.843 28.7905 277.43 28.3773 277.43 27.864ZM281.186 28.5526V27.1816H289.762V28.5526H281.186Z" fill="#1B1B1B"/>
<path d="M289.761 24.5702H277.379V23.1992H289.761V24.5702Z" fill="#1B1B1B"/>
<path d="M289.761 20.5897H277.379V19.2188H289.761V20.5897Z" fill="#1B1B1B"/>
<path d="M289.762 11.2123H288.234C289.317 11.7632 290 12.7899 290 14.2485C290 16.0514 288.973 17.197 287.427 17.197C285.762 17.197 284.735 15.8761 284.629 13.3533L284.541 11.2123H284.403C283.014 11.2123 282.175 12.0699 282.175 13.4597C282.175 14.5051 282.657 15.344 283.633 15.826L283.07 16.9591C281.73 16.3581 280.941 15.056 280.941 13.4284C280.941 11.3375 282.244 9.87891 284.253 9.87891H289.756V11.2186L289.762 11.2123ZM285.68 11.2123L285.768 13.2218C285.856 14.9559 286.4 15.826 287.383 15.826C288.241 15.826 288.773 15.1562 288.773 14.0794C288.773 12.5019 287.571 11.2186 286.112 11.2186H285.68V11.2123Z" fill="#1B1B1B"/>
<path d="M287.84 7.88098L287.17 6.72911C288.253 6.17822 288.729 5.25173 288.729 4.1249C288.729 2.99808 288.216 2.10289 287.389 2.10289C285.317 2.10289 286.688 7.46781 283.546 7.46781C282.018 7.46781 280.941 6.18448 280.941 4.29393C280.941 2.73516 281.68 1.46435 282.945 0.900943L283.564 2.01524C282.619 2.54735 282.175 3.28605 282.175 4.31271C282.175 5.44579 282.707 6.1657 283.445 6.1657C285.486 6.1657 283.996 0.800781 287.339 0.800781C288.986 0.800781 290 2.10289 290 4.1249C290 5.89026 289.23 7.2487 287.84 7.88098Z" fill="#1B1B1B"/>
</g>
<defs>
<clipPath id="clip0_627_10758">
<rect width="290" height="38.218" fill="white"/>
</clipPath>
</defs>
</svg>
