<svg width="218" height="41" viewBox="0 0 218 41" fill="none" xmlns="http://www.w3.org/2000/svg">
<g clip-path="url(#clip0_627_10806)">
<path d="M27.5732 32.0229L25.6693 40.9944H0C0.519228 40.2208 2.85035 39.9038 2.85035 37.2178V5.10863C2.85035 2.42257 0.519228 2.10562 0 1.33203H12.8347C12.3154 2.10562 9.98432 2.42257 9.98432 5.10863V40.2853H15.6904C22.9542 40.2853 24.8364 36.5946 27.5732 32.0229Z" fill="#1B1B1B"/>
<path d="M32.2291 0C32.2291 0 29.9466 5.32377 28.9298 6.55936L26.8691 6.96764C27.7237 4.74895 28.5134 1.10128 28.5134 0.38142L32.2345 0L32.2291 0Z" fill="#1B1B1B"/>
<path d="M65.7139 40.9944H52.4033C52.9225 40.2208 54.7344 39.7534 53.6743 37.2178L50.2182 28.9555H36.4532L33.5326 37.2178C32.5861 39.8931 34.5332 40.2208 35.047 40.9944H28.627C29.1462 40.2208 31.8775 39.8662 32.8132 37.2178L45.5127 1.33203H46.2266L61.2788 37.2178C62.3605 39.7964 65.2001 40.2208 65.7139 40.9944ZM49.9261 28.2463L42.7651 11.12L36.7128 28.2463H49.9315H49.9261Z" fill="#1B1B1B"/>
<path d="M94.121 1.33203C93.6018 2.10562 90.8705 2.46018 89.9348 5.10863L77.2461 40.9944H76.5322L61.48 5.10863C60.3983 2.53001 57.5641 2.10562 57.0449 1.33203H70.3555C69.8363 2.10562 68.0244 2.57299 69.0845 5.10863L79.9991 31.2064L89.2262 5.10863C90.1727 2.43332 88.2256 2.10562 87.7118 1.33203H94.1319H94.121Z" fill="#1B1B1B"/>
<path d="M143.41 30.6101L141.036 40.9997H96.3496C96.8688 40.2262 99.2 39.9092 99.2 37.2231V5.114C99.2 2.42794 96.8688 2.11099 96.3496 1.3374H121.543L123.447 10.3088C120.71 5.73717 118.822 2.04652 111.564 2.04652H106.334V19.9894H112.527C115.22 19.9786 115.539 16.3202 116.318 15.5037V25.1842C115.539 24.3677 115.22 20.6985 112.516 20.6985H106.334V40.2906H131.051C138.434 40.2906 141.382 34.8863 143.41 30.6101ZM161.469 1.33203C160.95 2.10562 158.619 2.42257 158.619 5.10863V40.9944H157.905L129.385 4.7863V33.4412C129.385 36.1272 131.717 36.4442 132.236 37.2178H125.816C126.335 36.4442 128.666 36.1272 128.666 33.4412V5.10863C128.666 2.42257 126.335 2.10562 125.816 1.33203H134.61L157.905 30.1534V5.10863C157.905 2.42257 155.569 2.10562 155.055 1.33203H161.475H161.469Z" fill="#1B1B1B"/>
<path d="M175.635 5.10863V37.2178C175.635 39.9038 177.966 40.2208 178.485 40.9944H165.65C166.17 40.2208 168.501 39.9038 168.501 37.2178V5.10863C168.501 2.42257 166.17 2.10562 165.65 1.33203H178.485C177.966 2.10562 175.635 2.42257 175.635 5.10863Z" fill="#1B1B1B"/>
<path d="M218 40.9944H207.523C207.523 40.9944 206.079 38.1149 202.315 30.6047C200.995 27.9777 198.821 23.0515 194.71 23.0515H192.807V37.2178C192.807 39.9038 195.138 40.2208 195.657 40.9944H182.822C183.341 40.2208 185.673 39.9038 185.673 37.2178V5.10863C185.673 2.42257 183.341 2.10562 182.822 1.33203H195.657C206.588 1.33203 211.818 5.58138 211.818 12.6618C211.818 17.5505 207.924 21.73 199.832 22.7883C204.105 23.6263 207.188 25.7214 209.26 29.6807C210.736 32.5011 211.991 34.8916 213.213 37.2446L213.197 37.2178C214.755 40.2315 217.481 40.2208 218 40.9944ZM195.657 22.3424C201.839 22.3424 204.213 19.7476 204.213 12.6618C204.213 5.576 201.839 2.03578 195.657 2.03578H192.807V22.337H195.657V22.3424Z" fill="#1B1B1B"/>
</g>
<defs>
<clipPath id="clip0_627_10806">
<rect width="218" height="41" fill="white"/>
</clipPath>
</defs>
</svg>
