<svg width="159" height="39" viewBox="0 0 159 39" fill="none" xmlns="http://www.w3.org/2000/svg">
<g clip-path="url(#clip0_627_10787)">
<path d="M97.0839 26.8679C96.9409 28.0002 96.5952 29.1802 96.035 30.4199C95.4808 31.6535 94.7477 32.8157 93.8359 33.9004C92.924 34.985 91.887 35.879 90.7249 36.5763C89.5568 37.2736 88.3052 37.6252 86.9643 37.6252H77.3751V19.5851H88.0609V18.9474H77.3751V0.907224H87.7033C89.825 1.22309 91.7142 2.20049 93.371 3.83346C95.0338 5.46643 96.0291 7.23647 96.3628 9.14359H97.0243L95.7788 0.269531H70.9922V2.16473L71.0399 2.17665V36.3498L70.9922 36.3617V38.2569H96.4403L97.7097 26.8679H97.072H97.0839Z" fill="#1B1B1B"/>
<path d="M6.32925 38.2675V21.1452C7.47948 21.1452 8.51647 21.7531 9.45215 22.9748L20.9425 38.2675H29.3398L19.5182 25.3289C18.35 23.7555 17.2654 22.6053 16.2582 21.8723C15.251 21.1392 14.071 20.6803 12.7062 20.4956C11.3474 20.3108 9.47599 20.2155 7.09209 20.2155L16.2045 9.45811C17.8137 7.551 20.2572 6.59744 23.541 6.59744H29.5246V0.268188H26.1335C24.9177 0.268188 23.8807 0.548296 23.0344 1.10255C22.1881 1.65681 21.4372 2.33622 20.7816 3.12887L6.31733 20.2155V0H0V38.2675H6.32925Z" fill="#1B1B1B"/>
<path d="M64.4483 26.8679C64.3053 28.0002 63.9596 29.1802 63.3994 30.4199C62.8451 31.6535 62.1121 32.8157 61.2003 33.9004C60.2884 34.985 59.2514 35.879 58.0893 36.5763C56.9212 37.2736 55.6696 37.6252 54.3287 37.6252H44.7394V19.5851H55.5564V18.9474H44.7394V0.907224H55.0677C57.1894 1.22309 59.0786 2.20049 60.7354 3.83346C62.3982 5.46643 63.3934 7.23647 63.7272 9.14359H64.3887L63.1431 0.269531H38.5234V38.2569H63.8047L65.0741 26.8679H64.4364H64.4483Z" fill="#1B1B1B"/>
<path d="M131.09 0L120.577 29.1729L109.712 0H102.436L116.685 38.2556H118.008L131.763 0H131.09Z" fill="#1B1B1B"/>
<path d="M128.242 38.2689H128.904L133.35 26.552H147.707L152.379 38.2689H159.001L143.94 0.269531H137.289L139.989 7.07556L128.236 38.2629L128.242 38.2689ZM147.439 25.9143H133.582L140.335 7.9278L147.433 25.9143H147.439Z" fill="#1B1B1B"/>
</g>
<defs>
<clipPath id="clip0_627_10787">
<rect width="159" height="38.2675" fill="white"/>
</clipPath>
</defs>
</svg>
