<svg width="24" height="24" viewBox="0 0 24 24" fill="none" xmlns="http://www.w3.org/2000/svg">
<g clip-path="url(#clip0_1000_2367)">
<path fill-rule="evenodd" clip-rule="evenodd" d="M10.9717 10.2772C10.8747 10.5111 10.7106 10.711 10.5001 10.8517C10.2895 10.9923 10.042 11.0674 9.78882 11.0674H9.78539H4.18654C3.93241 11.0672 3.68405 10.9917 3.47282 10.8504C3.2616 10.7091 3.09698 10.5084 2.99976 10.2736C2.90254 10.0388 2.87708 9.78046 2.92659 9.53121C2.97611 9.28195 3.09838 9.05296 3.27796 8.87315L5.16711 6.9823L0.877964 2.69315C0.751644 2.57545 0.650326 2.4335 0.580054 2.27579C0.509782 2.11808 0.471996 1.94783 0.46895 1.77519C0.465904 1.60256 0.497661 1.43108 0.562325 1.27099C0.62699 1.11089 0.723238 0.965463 0.845327 0.843374C0.967416 0.721285 1.11285 0.625037 1.27294 0.560372C1.43303 0.495708 1.60451 0.463951 1.77715 0.466997C1.94978 0.470043 2.12003 0.507829 2.27774 0.578101C2.43546 0.648373 2.5774 0.749691 2.69511 0.876011L6.98596 5.16515L8.87511 3.2743C9.05491 3.09471 9.2839 2.97244 9.53316 2.92293C9.78241 2.87341 10.0408 2.89887 10.2755 2.99609C10.5103 3.09331 10.7111 3.25793 10.8524 3.46916C10.9936 3.68038 11.0692 3.92874 11.0694 4.18287V9.78173C11.0694 9.9583 11.0351 10.1246 10.9717 10.2789V10.2772ZM11.5494 22.764C10.6607 23.3362 9.60293 23.5871 8.55193 23.4748C7.50093 23.3625 6.52001 22.8939 5.77225 22.1469L5.12082 21.4954C4.83188 21.2034 4.66982 20.8091 4.66982 20.3983C4.66982 19.9875 4.83188 19.5932 5.12082 19.3012L7.86368 16.5754C8.15282 16.2876 8.54423 16.1259 8.95225 16.1259C9.36027 16.1259 9.75168 16.2876 10.0408 16.5754C10.3329 16.8644 10.7271 17.0264 11.138 17.0264C11.5488 17.0264 11.943 16.8644 12.2351 16.5754L16.6065 12.204C16.8955 11.912 17.0575 11.5177 17.0575 11.1069C17.0575 10.696 16.8955 10.3018 16.6065 10.0097C16.3187 9.72058 16.157 9.32917 16.157 8.92115C16.157 8.51313 16.3187 8.12173 16.6065 7.83258L19.2465 5.08973C19.5386 4.80079 19.9328 4.63872 20.3437 4.63872C20.7545 4.63872 21.1488 4.80079 21.4408 5.08973L22.0922 5.74115C22.8527 6.47836 23.3373 7.45407 23.4652 8.50544C23.5931 9.55682 23.3566 10.6203 22.7951 11.5183C19.8059 15.9562 15.9873 19.7748 11.5494 22.764Z" fill="white"/>
</g>
<defs>
<clipPath id="clip0_1000_2367">
<rect width="24" height="24" fill="white"/>
</clipPath>
</defs>
</svg>
