<svg width="156" height="75" viewBox="0 0 156 75" fill="none" xmlns="http://www.w3.org/2000/svg">
<g clip-path="url(#clip0_892_1616)">
<path d="M11.9461 7.13809C11.9754 7.93701 12.6446 8.60451 13.4456 8.64831V10.7968C11.4232 10.753 9.82127 9.17189 9.79199 7.13809V0.0229492H11.9461V7.13809Z" fill="white"/>
<path d="M55.1778 38.0078C52.9464 38.0078 50.8592 38.6231 49.0753 39.6932V33.6294H43.3262V61.2368H49.0753V59.9623C50.8571 61.0324 52.9464 61.6478 55.1778 61.6478C61.7238 61.6478 67.0295 56.3557 67.0295 49.8267C67.0295 43.2977 61.7238 38.0057 55.1778 38.0057V38.0078ZM55.2406 55.8113C51.8923 55.8113 49.1799 53.1037 49.1799 49.7662C49.1799 46.4287 51.8944 43.7212 55.2406 43.7212C58.5867 43.7212 61.3013 46.4266 61.3013 49.7662C61.3013 53.1058 58.5888 55.8113 55.2406 55.8113Z" fill="white"/>
<path d="M39.5705 49.8287C39.5705 49.7015 39.5684 49.5721 39.5643 49.4449V38.3748H33.8151V39.691C32.0333 38.623 29.9482 38.0098 27.7189 38.0098C21.1729 38.0098 15.8672 43.3018 15.8672 49.8308C15.8672 56.3598 21.1729 61.6518 27.7189 61.6518C29.9482 61.6518 32.0333 61.0365 33.8151 59.9706V61.2409H39.5643V50.2146C39.5684 50.0874 39.5705 49.9601 39.5705 49.8308V49.8287ZM27.7816 55.8112C24.4334 55.8112 21.7209 53.1036 21.7209 49.7661C21.7209 46.4286 24.4354 43.7211 27.7816 43.7211C30.9333 43.7211 33.5224 46.1199 33.8151 49.1862V50.346C33.5224 53.4124 30.9333 55.8112 27.7816 55.8112Z" fill="white"/>
<path d="M13.8382 55.9762C13.3342 59.2699 11.0421 61.3224 7.62275 61.5936C5.02111 61.748 2.34 60.7801 0.319755 58.3396L3.00086 54.6975C3.58435 55.317 4.39998 56.093 5.6025 56.4017C6.84476 56.7897 8.04938 56.7501 8.47602 55.6654C8.86501 54.4263 7.2714 52.9912 5.40801 51.7146C2.96322 49.9332 -0.454044 47.2611 0.0499711 43.7734C0.516342 40.4797 2.8461 38.3875 6.26546 38.156C8.82945 38.0016 11.5085 38.9299 13.5684 41.4101L10.8873 45.0521C10.2265 44.3158 9.17871 43.4251 7.81933 43.0767C6.77157 42.8452 5.79909 43.1935 5.44983 44.1614C5.0232 45.5173 7.3927 47.1068 9.25609 48.3834C11.703 50.1647 14.3443 52.4906 13.8403 55.9762H13.8382Z" fill="white"/>
<path d="M134.914 38.375V50.1147C134.837 53.2519 132.35 55.8865 129.36 55.8865C126.369 55.8865 123.922 53.2519 123.845 50.1147V38.375H118.096V50.1147C118.173 56.7 123.144 61.6207 129.36 61.6207C131.386 61.6207 133.279 61.1034 134.914 60.1793V61.2369H140.663V38.375H134.914Z" fill="white"/>
<path d="M156 38.375V44.2261H152.855C151.34 44.2657 149.824 45.4276 149.824 47.2486V61.239H143.958V47.2486C143.958 42.3675 147.842 38.4543 152.853 38.3771H155.998L156 38.375Z" fill="white"/>
<path d="M8.97189 6.32236C8.97189 6.27438 8.97189 6.2264 8.9698 6.17843V1.98777H6.79479V2.48631C6.12138 2.08164 5.33085 1.8501 4.48803 1.8501C2.00769 1.84801 0 3.85052 0 6.32236C0 8.7942 2.0077 10.7967 4.48594 10.7967C5.32876 10.7967 6.11929 10.5652 6.7927 10.1605V10.7821H8.9677V6.46629C8.9677 6.41831 8.9698 6.37033 8.9698 6.32236H8.97189ZM4.50895 8.58769C3.24159 8.58769 2.21474 7.56349 2.21474 6.29941C2.21474 5.03533 3.24159 4.01113 4.50895 4.01113C5.70311 4.01113 6.68186 4.9206 6.7927 6.08247V6.51635C6.68395 7.67822 5.70311 8.58769 4.50895 8.58769Z" fill="white"/>
<path d="M13.4977 12.1631H0.382812V14.3012H13.4977V12.1631Z" fill="white"/>
<path d="M103.422 38.0098C99.1638 38.0098 95.4329 40.2522 93.3457 43.6168L97.6079 47.8679C98.4026 45.4587 100.678 43.719 103.359 43.719C106.703 43.719 109.416 46.4224 109.416 49.7599C109.416 53.0974 106.705 55.8008 103.359 55.8008C100.711 55.8008 98.4611 54.1049 97.6392 51.7436L93.3457 56.026C95.4329 59.3907 99.1638 61.633 103.422 61.633C109.961 61.633 115.263 56.3452 115.263 49.8225C115.263 43.2997 109.961 38.0119 103.422 38.0119V38.0098Z" fill="white"/>
<path d="M81.7554 43.717C84.4365 43.717 86.7119 45.4567 87.5066 47.8659L91.7688 43.6148C89.6816 40.2502 85.9506 38.0078 81.6926 38.0078C79.4633 38.0078 77.3761 38.6231 75.5964 39.6932V33.6294H69.8535V61.2285H75.5964V59.9456C77.3782 61.0157 79.4633 61.6311 81.6926 61.6311C85.9506 61.6311 89.6816 59.3887 91.7688 56.0241L90.5181 54.7767L87.4773 51.7437C86.6554 54.105 84.4051 55.8009 81.7575 55.8009C78.4134 55.8009 75.7009 53.0975 75.7009 49.76C75.7009 46.4225 78.4113 43.7191 81.7575 43.7191L81.7554 43.717Z" fill="white"/>
<path d="M98.1806 5.65088H103.93V33.2687H98.1806V27.1006C96.5494 28.0309 94.6462 28.5733 92.5863 28.5733C86.4105 28.5733 81.3996 23.615 81.3223 17.0672V5.65088H87.0714V17.0651C87.1111 20.2024 89.5956 22.7994 92.5863 22.7994C95.6166 22.7994 98.1806 20.2817 98.1806 17.0651V5.65088Z" fill="white"/>
<path d="M39.5705 16.9522C39.5705 16.825 39.5684 16.6957 39.5643 16.5684V5.49834H33.8151V6.81457C32.0333 5.74657 29.9482 5.1333 27.7189 5.1333C21.1729 5.1333 15.8672 10.4253 15.8672 16.9543C15.8672 23.4833 21.1729 28.7754 27.7189 28.7754C29.9482 28.7754 32.0333 28.16 33.8151 27.0941V28.3644H39.5643V17.3381C39.5684 17.2109 39.5705 17.0837 39.5705 16.9543V16.9522ZM27.7816 22.9347C24.4334 22.9347 21.7209 20.2272 21.7209 16.8897C21.7209 13.5522 24.4354 10.8446 27.7816 10.8446C30.9333 10.8446 33.5224 13.2434 33.8151 16.3098V17.4696C33.5224 20.5359 30.9333 22.9347 27.7816 22.9347Z" fill="white"/>
<path d="M74.419 18.9904C74.4964 21.1222 76.2845 22.9036 78.4198 23.0204V28.7547C73.0199 28.6379 68.7473 24.4159 68.6699 18.9925V0H74.419V18.9904Z" fill="white"/>
<path d="M49.0528 28.3565H43.3037V0.0126953H49.0528V6.90882C50.6841 5.97849 52.5872 5.43614 54.6472 5.43614C60.8229 5.43614 65.8338 10.3944 65.9112 16.9422V28.3565H60.1621V16.9422C60.1223 13.8049 57.6378 11.2079 54.6472 11.2079C51.6566 11.2079 49.0528 13.7257 49.0528 16.9422V28.3565Z" fill="white"/>
<path d="M8.97816 6.29333C8.97816 6.24535 8.97816 6.19737 8.97607 6.14731V1.95457H6.79898V2.45311C6.12347 2.04844 5.33503 1.8169 4.49013 1.8169C2.00979 1.81481 0 3.8194 0 6.29333C0 8.76725 2.00979 10.7718 4.49013 10.7718C5.33503 10.7718 6.12556 10.5382 6.79898 10.1356V10.7593H8.97607V6.44143C8.97607 6.39345 8.97816 6.34547 8.97816 6.29541V6.29333ZM4.51313 8.56074C3.24577 8.56074 2.21683 7.53446 2.21683 6.27038C2.21683 5.0063 3.24577 3.98002 4.51313 3.98002C5.70729 3.98002 6.68813 4.88949 6.79898 6.05344V6.48732C6.69023 7.64919 5.70729 8.56074 4.51313 8.56074Z" fill="white"/>
<path d="M13.5081 12.1382H0.382812V14.2763H13.5081V12.1382Z" fill="white"/>
<path d="M3.48173 69.3574C4.10286 69.3574 4.62361 69.4304 5.03979 69.5785C5.45597 69.7266 5.78849 69.9269 6.03736 70.1814C6.28623 70.4338 6.4619 70.7258 6.56856 71.0575C6.67313 71.387 6.72751 71.7354 6.72751 72.0984C6.72751 72.4613 6.66895 72.8117 6.55183 73.1476C6.43472 73.4834 6.24859 73.7817 5.99553 74.0404C5.74248 74.299 5.40786 74.5034 4.99378 74.6557C4.57969 74.8059 4.07568 74.881 3.48382 74.881H0.31543V69.3574H3.48173ZM1.45312 73.9089H3.45664C3.86654 73.9089 4.20743 73.8589 4.47931 73.7588C4.75118 73.6586 4.96659 73.523 5.12553 73.3541C5.28447 73.183 5.3995 72.989 5.46851 72.7742C5.53753 72.5573 5.57099 72.3341 5.57099 72.1004C5.57099 71.8668 5.53753 71.6457 5.46851 71.435C5.3995 71.2243 5.28657 71.0366 5.12553 70.8718C4.96659 70.707 4.75118 70.5756 4.47931 70.4797C4.20743 70.3837 3.86654 70.3336 3.45664 70.3336H1.45312V73.911V73.9089Z" fill="white"/>
<path d="M15.089 72.576V73.934H19.3595V74.881H13.9492V69.3574H19.3512V70.3044H15.089V71.6791H18.5816V72.576H15.089Z" fill="white"/>
<path d="M28.6052 74.881L26.1562 69.3574H27.4152L29.5129 74.3428H29.1197L31.2089 69.3574H32.4491L30.0273 74.881H28.6073H28.6052Z" fill="white"/>
<path d="M40.5304 72.576V73.934H44.8009V74.881H39.3906V69.3574H44.7926V70.3044H40.5304V71.6791H44.023V72.576H40.5304Z" fill="white"/>
<path d="M53.2227 69.3574V73.934H56.9034V74.881H52.085V69.3574H53.2227Z" fill="white"/>
<path d="M67.1153 74.9915C66.3792 74.9915 65.7497 74.8768 65.2268 74.6453C64.704 74.4158 64.3045 74.0862 64.0285 73.6586C63.7524 73.231 63.6123 72.7199 63.6123 72.1213C63.6123 71.5226 63.7503 71.0032 64.0285 70.5756C64.3045 70.148 64.704 69.8205 65.2268 69.5889C65.7497 69.3574 66.3792 69.2427 67.1153 69.2427C67.8515 69.2427 68.4872 69.3574 69.008 69.5889C69.5266 69.8205 69.9261 70.148 70.2021 70.5756C70.4782 71.0032 70.6183 71.5184 70.6183 72.1213C70.6183 72.7241 70.4803 73.231 70.2021 73.6586C69.9261 74.0862 69.5266 74.4137 69.008 74.6453C68.4893 74.8768 67.8577 74.9915 67.1153 74.9915ZM67.1153 74.009C67.5712 74.009 67.9728 73.9402 68.3178 73.8046C68.6629 73.669 68.9348 73.4604 69.1314 73.1809C69.328 72.9014 69.4263 72.5489 69.4263 72.1234C69.4263 71.6978 69.328 71.3432 69.1314 71.0637C68.9348 70.7842 68.6629 70.5756 68.3178 70.4358C67.9728 70.2961 67.5712 70.2272 67.1153 70.2272C66.6594 70.2272 66.262 70.2961 65.9086 70.4358C65.5552 70.5756 65.277 70.7842 65.0783 71.0637C64.8776 71.3432 64.7793 71.6957 64.7793 72.1234C64.7793 72.551 64.8797 72.9035 65.0783 73.1809C65.277 73.4604 65.5552 73.667 65.9086 73.8046C66.262 73.9402 66.6657 74.009 67.1153 74.009Z" fill="white"/>
<path d="M78.8268 73.0872V72.1819H81.3615C81.6648 72.1819 81.9032 72.1006 82.081 71.9379C82.2587 71.7752 82.3466 71.5499 82.3466 71.2599C82.3466 70.97 82.2587 70.728 82.081 70.5674C81.9032 70.4089 81.6648 70.3275 81.3615 70.3275H78.9648V74.879H77.8271V69.3555H81.259C81.5665 69.3555 81.8572 69.393 82.127 69.466C82.3988 69.539 82.6352 69.6538 82.838 69.8081C83.0409 69.9625 83.1998 70.1586 83.3128 70.3964C83.4278 70.6362 83.4842 70.922 83.4842 71.2578C83.4842 71.5937 83.4278 71.869 83.3128 72.1027C83.1977 72.3363 83.0409 72.5261 82.838 72.67C82.6352 72.816 82.3988 72.9203 82.127 72.985C81.8551 73.0497 81.5665 73.083 81.259 73.083H78.8289L78.8268 73.0872Z" fill="white"/>
<path d="M94.9701 74.3178H94.4306L97.6157 69.3574H98.7534V74.881H97.6157V70.8676L97.8897 70.9448L95.3466 74.881H94.0709L91.5278 70.9615L91.8018 70.8843V74.881H90.6641V69.3574H91.8018L94.9681 74.3178H94.9701Z" fill="white"/>
<path d="M107.321 72.576V73.934H111.592V74.881H106.182V69.3574H111.584V70.3044H107.321V71.6791H110.814V72.576H107.321Z" fill="white"/>
<path d="M124.493 73.7526L124.133 73.8986V69.3576H125.271V74.8811H124.133L119.656 70.5173L120.016 70.3713V74.879H118.878V69.3555H120.016L124.493 73.7526Z" fill="white"/>
<path d="M132.215 69.3574H138.052V70.3044H132.215V69.3574ZM134.57 70.1855H135.707V74.881H134.57V70.1855Z" fill="white"/>
<path d="M144.625 73.0183H145.781C145.804 73.2123 145.894 73.3875 146.051 73.544C146.208 73.7004 146.415 73.8235 146.672 73.9111C146.929 73.9987 147.218 74.0425 147.536 74.0425C147.826 74.0425 148.067 74.0112 148.255 73.9486C148.443 73.8861 148.584 73.7985 148.676 73.6837C148.768 73.569 148.812 73.4334 148.812 73.2749C148.812 73.1164 148.755 73.0037 148.64 72.9203C148.525 72.8368 148.345 72.7701 148.1 72.7159C147.856 72.6616 147.532 72.6053 147.134 72.549C146.821 72.5031 146.524 72.4405 146.243 72.3571C145.963 72.2736 145.716 72.1673 145.503 72.0379C145.29 71.9065 145.12 71.7459 144.997 71.5561C144.874 71.3663 144.813 71.1389 144.813 70.8781C144.813 70.5527 144.905 70.269 145.091 70.025C145.277 69.7809 145.551 69.589 145.917 69.4534C146.283 69.3179 146.731 69.249 147.262 69.249C148.061 69.249 148.676 69.418 149.106 69.758C149.537 70.0959 149.746 70.5611 149.736 71.1535H148.623C148.6 70.8176 148.46 70.5757 148.199 70.4276C147.939 70.2795 147.613 70.2065 147.218 70.2065C146.852 70.2065 146.551 70.2607 146.314 70.3692C146.078 70.4776 145.959 70.6633 145.959 70.924C145.959 71.0262 145.988 71.1159 146.045 71.1931C146.101 71.2703 146.199 71.337 146.335 71.3934C146.471 71.4497 146.657 71.5039 146.892 71.5561C147.126 71.6082 147.417 71.6583 147.764 71.7104C148.09 71.7563 148.385 71.8168 148.65 71.894C148.916 71.9712 149.144 72.0713 149.334 72.1923C149.525 72.3154 149.673 72.4697 149.776 72.6574C149.878 72.8452 149.93 73.0767 149.93 73.35C149.93 73.6858 149.843 73.9778 149.669 74.2261C149.495 74.4743 149.228 74.6662 148.864 74.8018C148.5 74.9374 148.031 75.0062 147.456 75.0062C147.046 75.0062 146.683 74.9624 146.369 74.8748C146.055 74.7872 145.783 74.6683 145.555 74.5202C145.327 74.3721 145.141 74.2094 144.999 74.0342C144.857 73.8569 144.754 73.6816 144.696 73.5043C144.635 73.327 144.612 73.1685 144.623 73.0267L144.625 73.0183Z" fill="white"/>
</g>
<defs>
<clipPath id="clip0_892_1616">
<rect width="156" height="75" fill="white"/>
</clipPath>
</defs>
</svg>
