<svg width="69" height="55" viewBox="0 0 69 55" fill="none" xmlns="http://www.w3.org/2000/svg">
<path d="M12.333 19.417C12.333 19.417 4.18992 22.5837 2.83301 33.667M56.6663 19.417C56.6663 19.417 64.8094 22.5837 66.1663 33.667M24.9997 19.417C24.9997 19.417 32.5997 21.2647 34.4997 30.5003C36.3997 21.2647 43.9997 19.417 43.9997 19.417M28.1663 43.167C28.1663 43.167 21.5163 44.3545 18.6663 52.667M40.833 43.167C40.833 43.167 47.483 44.3545 50.333 52.667" stroke="#2E55A4" stroke-width="4" stroke-linecap="round"/>
<path d="M34.4997 46.3333C38.8719 46.3333 42.4163 42.7889 42.4163 38.4167C42.4163 34.0444 38.8719 30.5 34.4997 30.5C30.1274 30.5 26.583 34.0444 26.583 38.4167C26.583 42.7889 30.1274 46.3333 34.4997 46.3333Z" stroke="#2E55A4" stroke-width="4" stroke-linecap="round" stroke-linejoin="round"/>
<path d="M50.333 21C55.5797 21 59.833 16.7467 59.833 11.5C59.833 6.25329 55.5797 2 50.333 2C45.0863 2 40.833 6.25329 40.833 11.5C40.833 16.7467 45.0863 21 50.333 21Z" stroke="#2E55A4" stroke-width="4" stroke-linecap="round" stroke-linejoin="round"/>
<path d="M18.666 21C23.9127 21 28.166 16.7467 28.166 11.5C28.166 6.25329 23.9127 2 18.666 2C13.4193 2 9.16602 6.25329 9.16602 11.5C9.16602 16.7467 13.4193 21 18.666 21Z" stroke="#2E55A4" stroke-width="4" stroke-linecap="round" stroke-linejoin="round"/>
</svg>
