<svg width="50" height="60" viewBox="0 0 50 60" fill="none" xmlns="http://www.w3.org/2000/svg">
<path d="M24.9998 32.525C29.5976 32.525 33.3248 28.7978 33.3248 24.2C33.3248 19.6022 29.5976 15.875 24.9998 15.875C20.402 15.875 16.6748 19.6022 16.6748 24.2C16.6748 28.7978 20.402 32.525 24.9998 32.525Z" stroke="#2E55A4" stroke-width="4" stroke-linecap="round" stroke-linejoin="round"/>
<path d="M24.9998 2C19.112 2 13.4653 4.33892 9.30203 8.50223C5.13873 12.6655 2.7998 18.3122 2.7998 24.2C2.7998 29.4503 3.91535 32.8858 6.9623 36.6875L24.9998 57.5L43.0373 36.6875C46.0843 32.8858 47.1998 29.4503 47.1998 24.2C47.1998 18.3122 44.8609 12.6655 40.6976 8.50223C36.5343 4.33892 30.8876 2 24.9998 2Z" stroke="#2E55A4" stroke-width="4" stroke-linecap="round" stroke-linejoin="round"/>
</svg>
