<svg width="58" height="58" viewBox="0 0 58 58" fill="none" xmlns="http://www.w3.org/2000/svg">
<path d="M47.2295 19.7083C44.8812 19.7083 42.6291 18.7755 40.9687 17.115C39.3082 15.4545 38.3753 13.2024 38.3753 10.8542C38.3753 8.5059 37.4425 6.2538 35.782 4.59332C34.1215 2.93285 31.8694 2 29.5212 2H28.4795C26.1312 2 23.8791 2.93285 22.2187 4.59332C20.5582 6.2538 19.6253 8.5059 19.6253 10.8542C19.6253 13.2024 18.6925 15.4545 17.032 17.115C15.3715 18.7755 13.1194 19.7083 10.7712 19.7083C8.42289 19.7083 6.17079 20.6412 4.51032 22.3017C2.84984 23.9621 1.91699 26.2142 1.91699 28.5625V29.6042C1.91699 31.9524 2.84984 34.2045 4.51032 35.865C6.17079 37.5255 8.42289 38.4583 10.7712 38.4583C13.1194 38.4583 15.3715 39.3912 17.032 41.0517C18.6925 42.7121 19.6253 44.9642 19.6253 47.3125C19.6253 49.6608 20.5582 51.9129 22.2187 53.5733C23.8791 55.2338 26.1312 56.1667 28.4795 56.1667H29.5212C31.8694 56.1667 34.1215 55.2338 35.782 53.5733C37.4425 51.9129 38.3753 49.6608 38.3753 47.3125C38.3753 44.9642 39.3082 42.7121 40.9687 41.0517C42.6291 39.3912 44.8812 38.4583 47.2295 38.4583C49.5778 38.4583 51.8299 37.5255 53.4903 35.865C55.1508 34.2045 56.0837 31.9524 56.0837 29.6042V28.5625C56.0837 26.2142 55.1508 23.9621 53.4903 22.3017C51.8299 20.6412 49.5778 19.7083 47.2295 19.7083Z" stroke="#2E55A4" stroke-width="3" stroke-linecap="round" stroke-linejoin="round"/>
<path d="M48.5212 35.3437C46.8609 33.6833 45.9283 31.4314 45.9283 29.0833C45.9283 26.7353 46.8609 24.4834 48.5212 22.8229C50.1814 21.1625 51.1141 18.9106 51.1141 16.5625C51.1141 14.2144 50.1814 11.9625 48.5212 10.3021L47.7837 9.56458C46.1232 7.90436 43.8713 6.97168 41.5232 6.97168C39.1752 6.97168 36.9233 7.90436 35.2628 9.56458C34.4406 10.3869 33.4645 11.0393 32.3901 11.4844C31.3158 11.9294 30.1643 12.1585 29.0014 12.1585C27.8385 12.1585 26.687 11.9294 25.6126 11.4844C24.5383 11.0393 23.5621 10.3869 22.7399 9.56458C21.0795 7.90436 18.8276 6.97168 16.4795 6.97168C14.1314 6.97168 11.8795 7.90436 10.2191 9.56458L9.48157 10.3C7.82135 11.9604 6.88867 14.2124 6.88867 16.5604C6.88867 18.9085 7.82135 21.1604 9.48157 22.8208C10.3039 23.643 10.9563 24.6192 11.4014 25.6935C11.8464 26.7679 12.0755 27.9194 12.0755 29.0823C12.0755 30.2452 11.8464 31.3967 11.4014 32.471C10.9563 33.5454 10.3039 34.5215 9.48157 35.3437C7.82135 37.0042 6.88867 39.2561 6.88867 41.6042C6.88867 43.9522 7.82135 46.2041 9.48157 47.8646L10.217 48.6021C11.8774 50.2623 14.1293 51.195 16.4774 51.195C18.8255 51.195 21.0774 50.2623 22.7378 48.6021C23.56 47.7797 24.5362 47.1274 25.6105 46.6823C26.6849 46.2372 27.8364 46.0081 28.9993 46.0081C30.1622 46.0081 31.3137 46.2372 32.388 46.6823C33.4624 47.1274 34.4385 47.7797 35.2607 48.6021C36.9212 50.2623 39.1731 51.195 41.5212 51.195C43.8692 51.195 46.1211 50.2623 47.7816 48.6021L48.5191 47.8667C50.1793 46.2062 51.112 43.9543 51.112 41.6062C51.112 39.2582 50.1793 37.0063 48.5191 35.3458L48.5212 35.3437Z" stroke="#2E55A4" stroke-width="3" stroke-linecap="round" stroke-linejoin="round"/>
</svg>
