<svg width="24" height="11" viewBox="0 0 24 11" fill="none" xmlns="http://www.w3.org/2000/svg">
<path d="M23.5777 5.10156C23.7967 5.13281 23.9374 5.27344 24 5.52344C23.9687 5.74219 23.828 5.86719 23.5777 5.89844H1.33724L5.46628 10.0234C5.5914 10.2109 5.5914 10.3984 5.46628 10.5859C5.40371 10.6172 5.30987 10.6484 5.18475 10.6797C5.09091 10.6797 4.99707 10.6484 4.90323 10.5859L0.117302 5.80469C0.0860215 5.77344 0.0547412 5.72656 0.0234605 5.66406C-0.00782018 5.57031 -0.00782018 5.46094 0.0234605 5.33594C0.0234605 5.30469 0.0547408 5.25781 0.117302 5.19531L4.90323 0.414063C5.09091 0.289062 5.27859 0.289062 5.46628 0.414063C5.5914 0.601564 5.5914 0.789062 5.46628 0.976563L1.33724 5.10156H23.5777Z" fill="white"/>
</svg>
