<svg width="156" height="75" viewBox="0 0 156 75" fill="none" xmlns="http://www.w3.org/2000/svg">
<g clip-path="url(#clip0_866_2988)">
<path d="M11.9461 7.13761C11.9754 7.93652 12.6446 8.60402 13.4456 8.64783V10.7963C11.4232 10.7525 9.82127 9.1714 9.79199 7.13761V0.0224609H11.9461V7.13761Z" fill="#1B1B1B"/>
<path d="M55.1778 38.0083C52.9464 38.0083 50.8592 38.6236 49.0753 39.6937V33.6299H43.3262V61.2373H49.0753V59.9628C50.8571 61.0329 52.9464 61.6482 55.1778 61.6482C61.7238 61.6482 67.0295 56.3562 67.0295 49.8272C67.0295 43.2982 61.7238 38.0062 55.1778 38.0062V38.0083ZM55.2406 55.8118C51.8923 55.8118 49.1799 53.1042 49.1799 49.7667C49.1799 46.4292 51.8944 43.7217 55.2406 43.7217C58.5867 43.7217 61.3013 46.4271 61.3013 49.7667C61.3013 53.1063 58.5888 55.8118 55.2406 55.8118Z" fill="#1B1B1B"/>
<path d="M39.5705 49.8297C39.5705 49.7024 39.5684 49.5731 39.5643 49.4459V38.3758H33.8151V39.692C32.0333 38.624 29.9482 38.0107 27.7189 38.0107C21.1729 38.0107 15.8672 43.3028 15.8672 49.8318C15.8672 56.3608 21.1729 61.6528 27.7189 61.6528C29.9482 61.6528 32.0333 61.0374 33.8151 59.9715V61.2419H39.5643V50.2156C39.5684 50.0883 39.5705 49.9611 39.5705 49.8318V49.8297ZM27.7816 55.8122C24.4334 55.8122 21.7209 53.1046 21.7209 49.7671C21.7209 46.4296 24.4354 43.722 27.7816 43.722C30.9333 43.722 33.5224 46.1209 33.8151 49.1872V50.347C33.5224 53.4133 30.9333 55.8122 27.7816 55.8122Z" fill="#1B1B1B"/>
<path d="M13.8382 55.9762C13.3342 59.2699 11.0421 61.3224 7.62275 61.5936C5.02111 61.748 2.34 60.7801 0.319755 58.3396L3.00086 54.6975C3.58435 55.317 4.39998 56.093 5.6025 56.4017C6.84476 56.7897 8.04938 56.7501 8.47602 55.6654C8.86501 54.4263 7.2714 52.9912 5.40801 51.7146C2.96322 49.9332 -0.454044 47.2611 0.0499711 43.7734C0.516342 40.4797 2.8461 38.3875 6.26546 38.156C8.82945 38.0016 11.5085 38.9299 13.5684 41.4101L10.8873 45.0521C10.2265 44.3158 9.17871 43.4251 7.81933 43.0767C6.77157 42.8452 5.79909 43.1935 5.44983 44.1614C5.0232 45.5173 7.3927 47.1068 9.25609 48.3834C11.703 50.1647 14.3443 52.4906 13.8403 55.9762H13.8382Z" fill="#1B1B1B"/>
<path d="M134.914 38.375V50.1147C134.837 53.2519 132.35 55.8865 129.36 55.8865C126.369 55.8865 123.922 53.2519 123.845 50.1147V38.375H118.096V50.1147C118.173 56.7 123.144 61.6207 129.36 61.6207C131.386 61.6207 133.279 61.1034 134.914 60.1793V61.2369H140.663V38.375H134.914Z" fill="#1B1B1B"/>
<path d="M156 38.375V44.2261H152.855C151.34 44.2657 149.824 45.4276 149.824 47.2486V61.239H143.958V47.2486C143.958 42.3675 147.842 38.4543 152.853 38.3771H155.998L156 38.375Z" fill="#1B1B1B"/>
<path d="M8.97189 6.32284C8.97189 6.27487 8.97189 6.22689 8.9698 6.17892V1.98826H6.79479V2.4868C6.12138 2.08213 5.33085 1.85059 4.48803 1.85059C2.00769 1.8485 0 3.851 0 6.32284C0 8.79468 2.0077 10.7972 4.48594 10.7972C5.32876 10.7972 6.11929 10.5656 6.7927 10.161V10.7826H8.9677V6.46677C8.9677 6.4188 8.9698 6.37082 8.9698 6.32284H8.97189ZM4.50895 8.58818C3.24159 8.58818 2.21474 7.56398 2.21474 6.2999C2.21474 5.03582 3.24159 4.01162 4.50895 4.01162C5.70311 4.01162 6.68186 4.92109 6.7927 6.08296V6.51684C6.68395 7.67871 5.70311 8.58818 4.50895 8.58818Z" fill="#1B1B1B"/>
<path d="M13.4977 12.1631H0.382812V14.3012H13.4977V12.1631Z" fill="#1B1B1B"/>
<path d="M103.422 38.0107C99.1638 38.0107 95.4329 40.2531 93.3457 43.6178L97.6079 47.8689C98.4026 45.4596 100.678 43.72 103.359 43.72C106.703 43.72 109.416 46.4233 109.416 49.7608C109.416 53.0984 106.705 55.8017 103.359 55.8017C100.711 55.8017 98.4611 54.1059 97.6392 51.7446L93.3457 56.027C95.4329 59.3916 99.1638 61.634 103.422 61.634C109.961 61.634 115.263 56.3462 115.263 49.8234C115.263 43.3007 109.961 38.0128 103.422 38.0128V38.0107Z" fill="#1B1B1B"/>
<path d="M81.7554 43.7175C84.4365 43.7175 86.7119 45.4572 87.5066 47.8664L91.7688 43.6153C89.6816 40.2507 85.9506 38.0083 81.6926 38.0083C79.4633 38.0083 77.3761 38.6236 75.5964 39.6937V33.6299H69.8535V61.229H75.5964V59.9461C77.3782 61.0162 79.4633 61.6315 81.6926 61.6315C85.9506 61.6315 89.6816 59.3892 91.7688 56.0245L90.5181 54.7772L87.4773 51.7442C86.6554 54.1055 84.4051 55.8013 81.7575 55.8013C78.4134 55.8013 75.7009 53.098 75.7009 49.7605C75.7009 46.423 78.4113 43.7196 81.7575 43.7196L81.7554 43.7175Z" fill="#1B1B1B"/>
<path d="M98.1806 5.65039H103.93V33.2682H98.1806V27.1001C96.5494 28.0304 94.6462 28.5728 92.5863 28.5728C86.4105 28.5728 81.3996 23.6145 81.3223 17.0667V5.65039H87.0714V17.0647C87.1111 20.2019 89.5956 22.7989 92.5863 22.7989C95.6166 22.7989 98.1806 20.2812 98.1806 17.0647V5.65039Z" fill="#1B1B1B"/>
<path d="M39.5705 16.9527C39.5705 16.8255 39.5684 16.6962 39.5643 16.5689V5.49883H33.8151V6.81506C32.0333 5.74706 29.9482 5.13379 27.7189 5.13379C21.1729 5.13379 15.8672 10.4258 15.8672 16.9548C15.8672 23.4838 21.1729 28.7758 27.7189 28.7758C29.9482 28.7758 32.0333 28.1605 33.8151 27.0946V28.3649H39.5643V17.3386C39.5684 17.2114 39.5705 17.0841 39.5705 16.9548V16.9527ZM27.7816 22.9352C24.4334 22.9352 21.7209 20.2277 21.7209 16.8902C21.7209 13.5526 24.4354 10.8451 27.7816 10.8451C30.9333 10.8451 33.5224 13.2439 33.8151 16.3103V17.47C33.5224 20.5364 30.9333 22.9352 27.7816 22.9352Z" fill="#1B1B1B"/>
<path d="M74.419 18.9904C74.4964 21.1222 76.2845 22.9036 78.4198 23.0204V28.7547C73.0199 28.6379 68.7473 24.4159 68.6699 18.9925V0H74.419V18.9904Z" fill="#1B1B1B"/>
<path d="M49.0528 28.3565H43.3037V0.0126953H49.0528V6.90882C50.6841 5.97849 52.5872 5.43614 54.6472 5.43614C60.8229 5.43614 65.8338 10.3944 65.9112 16.9422V28.3565H60.1621V16.9422C60.1223 13.8049 57.6378 11.2079 54.6472 11.2079C51.6566 11.2079 49.0528 13.7257 49.0528 16.9422V28.3565Z" fill="#1B1B1B"/>
<path d="M8.97816 6.29284C8.97816 6.24486 8.97816 6.19688 8.97607 6.14682V1.95408H6.79898V2.45262C6.12347 2.04795 5.33503 1.81641 4.49013 1.81641C2.00979 1.81432 0 3.81891 0 6.29284C0 8.76676 2.00979 10.7714 4.49013 10.7714C5.33503 10.7714 6.12556 10.5377 6.79898 10.1351V10.7588H8.97607V6.44094C8.97607 6.39296 8.97816 6.34499 8.97816 6.29492V6.29284ZM4.51313 8.56026C3.24577 8.56026 2.21683 7.53397 2.21683 6.26989C2.21683 5.00581 3.24577 3.97953 4.51313 3.97953C5.70729 3.97953 6.68813 4.889 6.79898 6.05295V6.48683C6.69023 7.6487 5.70729 8.56026 4.51313 8.56026Z" fill="#1B1B1B"/>
<path d="M13.5081 12.1377H0.382812V14.2758H13.5081V12.1377Z" fill="#1B1B1B"/>
<path d="M3.48173 69.3574C4.10286 69.3574 4.62361 69.4304 5.03979 69.5785C5.45597 69.7266 5.78849 69.9269 6.03736 70.1814C6.28623 70.4338 6.4619 70.7258 6.56856 71.0575C6.67313 71.387 6.72751 71.7354 6.72751 72.0984C6.72751 72.4613 6.66895 72.8117 6.55183 73.1476C6.43472 73.4834 6.24859 73.7817 5.99553 74.0404C5.74248 74.299 5.40786 74.5034 4.99378 74.6557C4.57969 74.8059 4.07568 74.881 3.48382 74.881H0.31543V69.3574H3.48173ZM1.45312 73.9089H3.45664C3.86654 73.9089 4.20743 73.8589 4.47931 73.7588C4.75118 73.6586 4.96659 73.523 5.12553 73.3541C5.28447 73.183 5.3995 72.989 5.46851 72.7742C5.53753 72.5573 5.57099 72.3341 5.57099 72.1004C5.57099 71.8668 5.53753 71.6457 5.46851 71.435C5.3995 71.2243 5.28657 71.0366 5.12553 70.8718C4.96659 70.707 4.75118 70.5756 4.47931 70.4797C4.20743 70.3837 3.86654 70.3336 3.45664 70.3336H1.45312V73.911V73.9089Z" fill="#1B1B1B"/>
<path d="M15.089 72.576V73.934H19.3595V74.881H13.9492V69.3574H19.3512V70.3044H15.089V71.6791H18.5816V72.576H15.089Z" fill="#1B1B1B"/>
<path d="M28.6052 74.881L26.1562 69.3574H27.4152L29.5129 74.3428H29.1197L31.2089 69.3574H32.4491L30.0273 74.881H28.6073H28.6052Z" fill="#1B1B1B"/>
<path d="M40.5304 72.576V73.934H44.8009V74.881H39.3906V69.3574H44.7926V70.3044H40.5304V71.6791H44.023V72.576H40.5304Z" fill="#1B1B1B"/>
<path d="M53.2227 69.3574V73.934H56.9034V74.881H52.085V69.3574H53.2227Z" fill="#1B1B1B"/>
<path d="M67.1153 74.992C66.3792 74.992 65.7497 74.8773 65.2268 74.6457C64.704 74.4163 64.3045 74.0867 64.0285 73.6591C63.7524 73.2315 63.6123 72.7204 63.6123 72.1218C63.6123 71.5231 63.7503 71.0037 64.0285 70.5761C64.3045 70.1485 64.704 69.821 65.2268 69.5894C65.7497 69.3579 66.3792 69.2432 67.1153 69.2432C67.8515 69.2432 68.4872 69.3579 69.008 69.5894C69.5266 69.821 69.9261 70.1485 70.2021 70.5761C70.4782 71.0037 70.6183 71.5189 70.6183 72.1218C70.6183 72.7246 70.4803 73.2315 70.2021 73.6591C69.9261 74.0867 69.5266 74.4142 69.008 74.6457C68.4893 74.8773 67.8577 74.992 67.1153 74.992ZM67.1153 74.0095C67.5712 74.0095 67.9728 73.9407 68.3178 73.8051C68.6629 73.6695 68.9348 73.4609 69.1314 73.1814C69.328 72.9019 69.4263 72.5494 69.4263 72.1238C69.4263 71.6983 69.328 71.3437 69.1314 71.0642C68.9348 70.7847 68.6629 70.5761 68.3178 70.4363C67.9728 70.2966 67.5712 70.2277 67.1153 70.2277C66.6594 70.2277 66.262 70.2966 65.9086 70.4363C65.5552 70.5761 65.277 70.7847 65.0783 71.0642C64.8776 71.3437 64.7793 71.6962 64.7793 72.1238C64.7793 72.5515 64.8797 72.904 65.0783 73.1814C65.277 73.4609 65.5552 73.6674 65.9086 73.8051C66.262 73.9407 66.6657 74.0095 67.1153 74.0095Z" fill="#1B1B1B"/>
<path d="M78.8268 73.0872V72.1819H81.3615C81.6648 72.1819 81.9032 72.1006 82.081 71.9379C82.2587 71.7752 82.3466 71.5499 82.3466 71.2599C82.3466 70.97 82.2587 70.728 82.081 70.5674C81.9032 70.4089 81.6648 70.3275 81.3615 70.3275H78.9648V74.879H77.8271V69.3555H81.259C81.5665 69.3555 81.8572 69.393 82.127 69.466C82.3988 69.539 82.6352 69.6538 82.838 69.8081C83.0409 69.9625 83.1998 70.1586 83.3128 70.3964C83.4278 70.6362 83.4842 70.922 83.4842 71.2578C83.4842 71.5937 83.4278 71.869 83.3128 72.1027C83.1977 72.3363 83.0409 72.5261 82.838 72.67C82.6352 72.816 82.3988 72.9203 82.127 72.985C81.8551 73.0497 81.5665 73.083 81.259 73.083H78.8289L78.8268 73.0872Z" fill="#1B1B1B"/>
<path d="M94.9701 74.3178H94.4306L97.6157 69.3574H98.7534V74.881H97.6157V70.8676L97.8897 70.9448L95.3466 74.881H94.0709L91.5278 70.9615L91.8018 70.8843V74.881H90.6641V69.3574H91.8018L94.9681 74.3178H94.9701Z" fill="#1B1B1B"/>
<path d="M107.321 72.576V73.934H111.592V74.881H106.182V69.3574H111.584V70.3044H107.321V71.6791H110.814V72.576H107.321Z" fill="#1B1B1B"/>
<path d="M124.493 73.7526L124.133 73.8986V69.3576H125.271V74.8811H124.133L119.656 70.5173L120.016 70.3713V74.879H118.878V69.3555H120.016L124.493 73.7526Z" fill="#1B1B1B"/>
<path d="M132.215 69.3574H138.052V70.3044H132.215V69.3574ZM134.57 70.1855H135.707V74.881H134.57V70.1855Z" fill="#1B1B1B"/>
<path d="M144.625 73.0183H145.781C145.804 73.2123 145.894 73.3875 146.051 73.544C146.208 73.7004 146.415 73.8235 146.672 73.9111C146.929 73.9987 147.218 74.0425 147.536 74.0425C147.826 74.0425 148.067 74.0112 148.255 73.9486C148.443 73.8861 148.584 73.7985 148.676 73.6837C148.768 73.569 148.812 73.4334 148.812 73.2749C148.812 73.1164 148.755 73.0037 148.64 72.9203C148.525 72.8368 148.345 72.7701 148.1 72.7159C147.856 72.6616 147.532 72.6053 147.134 72.549C146.821 72.5031 146.524 72.4405 146.243 72.3571C145.963 72.2736 145.716 72.1673 145.503 72.0379C145.29 71.9065 145.12 71.7459 144.997 71.5561C144.874 71.3663 144.813 71.1389 144.813 70.8781C144.813 70.5527 144.905 70.269 145.091 70.025C145.277 69.7809 145.551 69.589 145.917 69.4534C146.283 69.3179 146.731 69.249 147.262 69.249C148.061 69.249 148.676 69.418 149.106 69.758C149.537 70.0959 149.746 70.5611 149.736 71.1535H148.623C148.6 70.8176 148.46 70.5757 148.199 70.4276C147.939 70.2795 147.613 70.2065 147.218 70.2065C146.852 70.2065 146.551 70.2607 146.314 70.3692C146.078 70.4776 145.959 70.6633 145.959 70.924C145.959 71.0262 145.988 71.1159 146.045 71.1931C146.101 71.2703 146.199 71.337 146.335 71.3934C146.471 71.4497 146.657 71.5039 146.892 71.5561C147.126 71.6082 147.417 71.6583 147.764 71.7104C148.09 71.7563 148.385 71.8168 148.65 71.894C148.916 71.9712 149.144 72.0713 149.334 72.1923C149.525 72.3154 149.673 72.4697 149.776 72.6574C149.878 72.8452 149.93 73.0767 149.93 73.35C149.93 73.6858 149.843 73.9778 149.669 74.2261C149.495 74.4743 149.228 74.6662 148.864 74.8018C148.5 74.9374 148.031 75.0062 147.456 75.0062C147.046 75.0062 146.683 74.9624 146.369 74.8748C146.055 74.7872 145.783 74.6683 145.555 74.5202C145.327 74.3721 145.141 74.2094 144.999 74.0342C144.857 73.8569 144.754 73.6816 144.696 73.5043C144.635 73.327 144.612 73.1685 144.623 73.0267L144.625 73.0183Z" fill="#1B1B1B"/>
</g>
<defs>
<clipPath id="clip0_866_2988">
<rect width="156" height="75" fill="white"/>
</clipPath>
</defs>
</svg>
