<svg width="32" height="32" viewBox="0 0 32 32" fill="none" xmlns="http://www.w3.org/2000/svg">
<path d="M21.1875 6.18726C21.1875 5.21224 20.9126 4.25698 20.3945 3.43101C19.8764 2.60504 19.136 1.9418 18.2583 1.51735C17.3805 1.09289 16.4009 0.924413 15.4317 1.03122C14.4626 1.13803 13.5432 1.51581 12.7789 2.12124C12.0146 2.72666 11.4364 3.53522 11.1106 4.45419C10.7849 5.37317 10.7247 6.36536 10.937 7.31698C11.1492 8.2686 11.6254 9.14113 12.3109 9.83451C12.9964 10.5279 13.8634 11.0141 14.8125 11.2373V28.9998L16 30.9998L17.1875 28.9998V11.2373C18.3243 10.9667 19.3371 10.3215 20.0627 9.40545C20.7882 8.4894 21.1844 7.35584 21.1875 6.18726ZM17.5 5.81226C17.2404 5.81226 16.9867 5.73528 16.7708 5.59106C16.555 5.44684 16.3867 5.24186 16.2874 5.00203C16.1881 4.7622 16.1621 4.4983 16.2127 4.2437C16.2634 3.9891 16.3884 3.75523 16.5719 3.57168C16.7555 3.38812 16.9893 3.26312 17.2439 3.21247C17.4985 3.16183 17.7624 3.18782 18.0023 3.28716C18.2421 3.3865 18.4471 3.55473 18.5913 3.77057C18.7355 3.98641 18.8125 4.24017 18.8125 4.49976C18.8125 4.84785 18.6742 5.18169 18.4281 5.42783C18.1819 5.67397 17.8481 5.81226 17.5 5.81226Z" fill="black"/>
</svg>
