<svg width="28" height="19" viewBox="0 0 28 19" fill="none" xmlns="http://www.w3.org/2000/svg">
<path opacity="0.8" d="M16.44 18.6998C15.16 18.6998 14.12 18.3822 13.32 17.7469C12.6 17.0323 12.24 16.1588 12.24 15.1266C12.24 13.9355 12.68 12.6253 13.56 11.196C14.44 9.68736 15.88 7.94046 17.88 5.95534C19.32 4.52606 20.72 3.33499 22.08 2.38213C23.44 1.34987 24.52 0.635233 25.32 0.238211C25.56 0.158807 25.76 0.119105 25.92 0.119105C26.16 0.0397018 26.36 0 26.52 0C27.32 0 27.72 0.198511 27.72 0.595534C27.72 0.992556 27.28 1.42928 26.4 1.90571C26.4 1.90571 25.88 2.38213 24.84 3.33499C23.8 4.20844 22.72 5.3201 21.6 6.66998C20.48 8.01986 19.68 9.40944 19.2 10.8387C21.04 11.474 21.96 12.4665 21.96 13.8164C21.96 14.9281 21.44 16.0397 20.4 17.1514C19.36 18.1836 18.04 18.6998 16.44 18.6998ZM4.2 18.6998C2.92 18.6998 1.88 18.3822 1.08 17.7469C0.36 17.0323 0 16.1588 0 15.1266C0 13.9355 0.44 12.6253 1.32 11.196C2.2 9.68736 3.64 7.94046 5.64 5.95534C7.08 4.52606 8.48 3.33499 9.84 2.38213C11.2 1.34987 12.28 0.635233 13.08 0.238211C13.32 0.158807 13.52 0.119105 13.68 0.119105C13.92 0.0397018 14.12 0 14.28 0C15.08 0 15.48 0.198511 15.48 0.595534C15.48 0.992556 15.04 1.42928 14.16 1.90571C14.16 1.90571 13.64 2.38213 12.6 3.33499C11.56 4.20844 10.48 5.3201 9.36 6.66998C8.24 8.01986 7.44 9.40944 6.96 10.8387C8.8 11.474 9.72 12.4665 9.72 13.8164C9.72 14.9281 9.2 16.0397 8.16 17.1514C7.12 18.1836 5.8 18.6998 4.2 18.6998Z" fill="#1B1B1B"/>
</svg>
