<svg width="28" height="19" viewBox="0 0 28 19" fill="none" xmlns="http://www.w3.org/2000/svg">
<path opacity="0.8" d="M11.2797 0.300221C12.5597 0.300221 13.5997 0.61784 14.3997 1.25308C15.1197 1.96772 15.4797 2.84117 15.4797 3.87343C15.4797 5.0645 15.0397 6.37467 14.1597 7.80396C13.2797 9.31264 11.8397 11.0595 9.83973 13.0447C8.39973 14.4739 6.99973 15.665 5.63973 16.6179C4.27972 17.6501 3.19972 18.3648 2.39972 18.7618C2.15973 18.8412 1.95973 18.8809 1.79973 18.8809C1.55973 18.9603 1.35973 19 1.19973 19C0.399725 19 -0.000276548 18.8015 -0.000276513 18.4045C-0.000276478 18.0074 0.439724 17.5707 1.31973 17.0943C1.31973 17.0943 1.83973 16.6179 2.87973 15.665C3.91973 14.7916 4.99973 13.6799 6.11973 12.33C7.23973 10.9801 8.03973 9.59056 8.51973 8.16128C6.67973 7.52604 5.75973 6.53348 5.75973 5.1836C5.75973 4.07194 6.27973 2.96028 7.31973 1.84861C8.35973 0.816351 9.67973 0.300221 11.2797 0.300221ZM23.5197 0.300222C24.7997 0.300222 25.8397 0.617842 26.6397 1.25308C27.3597 1.96772 27.7197 2.84117 27.7197 3.87343C27.7197 5.0645 27.2797 6.37467 26.3997 7.80396C25.5197 9.31264 24.0797 11.0595 22.0797 13.0447C20.6397 14.4739 19.2397 15.665 17.8797 16.6179C16.5197 17.6501 15.4397 18.3648 14.6397 18.7618C14.3997 18.8412 14.1997 18.8809 14.0397 18.8809C13.7997 18.9603 13.5997 19 13.4397 19C12.6397 19 12.2397 18.8015 12.2397 18.4045C12.2397 18.0074 12.6797 17.5707 13.5597 17.0943C13.5597 17.0943 14.0797 16.6179 15.1197 15.665C16.1597 14.7916 17.2397 13.6799 18.3597 12.33C19.4797 10.9801 20.2797 9.59056 20.7597 8.16128C18.9197 7.52604 17.9997 6.53348 17.9997 5.1836C17.9997 4.07194 18.5197 2.96028 19.5597 1.84861C20.5997 0.816352 21.9197 0.300222 23.5197 0.300222Z" fill="#1B1B1B"/>
</svg>
