<?xml version="1.0" encoding="UTF-8"?>
<svg id="Layer_2" data-name="Layer 2" xmlns="http://www.w3.org/2000/svg" viewBox="0 0 156 75.01">
  <defs>
    <style>
      .cls-1 {
        fill: #2e55a4;
        stroke-width: 0px;
      }
    </style>
  </defs>
  <g id="Layer_1-2" data-name="Layer 1">
    <g>
      <path class="cls-1" d="M11.95,7.14c.03.8.7,1.47,1.5,1.51v2.15c-2.02-.04-3.62-1.62-3.65-3.66V.02h2.15v7.12Z"/>
      <path class="cls-1" d="M55.18,38.01c-2.23,0-4.32.62-6.1,1.69v-6.06h-5.75v27.61h5.75v-1.27c1.78,1.07,3.87,1.69,6.1,1.69,6.55,0,11.85-5.29,11.85-11.82s-5.31-11.82-11.85-11.82h0ZM55.24,55.81c-3.35,0-6.06-2.71-6.06-6.05s2.71-6.05,6.06-6.05,6.06,2.71,6.06,6.05-2.71,6.05-6.06,6.05Z"/>
      <path class="cls-1" d="M39.57,49.83c0-.13,0-.26,0-.38v-11.07h-5.75v1.32c-1.78-1.07-3.87-1.68-6.1-1.68-6.55,0-11.85,5.29-11.85,11.82s5.31,11.82,11.85,11.82c2.23,0,4.31-.62,6.1-1.68v1.27h5.75v-11.03c0-.13,0-.25,0-.38h0ZM27.78,55.81c-3.35,0-6.06-2.71-6.06-6.05s2.71-6.05,6.06-6.05c3.15,0,5.74,2.4,6.03,5.47v1.16c-.29,3.07-2.88,5.47-6.03,5.47Z"/>
      <path class="cls-1" d="M13.84,55.98c-.5,3.29-2.8,5.35-6.22,5.62-2.6.15-5.28-.81-7.3-3.25l2.68-3.64c.58.62,1.4,1.4,2.6,1.7,1.24.39,2.45.35,2.87-.74.39-1.24-1.2-2.67-3.07-3.95-2.44-1.78-5.86-4.45-5.36-7.94.47-3.29,2.8-5.39,6.22-5.62,2.56-.15,5.24.77,7.3,3.25l-2.68,3.64c-.66-.74-1.71-1.63-3.07-1.98-1.05-.23-2.02.12-2.37,1.08-.43,1.36,1.94,2.95,3.81,4.22,2.45,1.78,5.09,4.11,4.58,7.59h0Z"/>
      <path class="cls-1" d="M134.91,38.38v11.74c-.08,3.14-2.56,5.77-5.55,5.77s-5.44-2.63-5.51-5.77v-11.74h-5.75v11.74c.08,6.59,5.05,11.51,11.26,11.51,2.03,0,3.92-.52,5.55-1.44v1.06h5.75v-22.86h-5.75Z"/>
      <path class="cls-1" d="M156,38.38v5.85h-3.15c-1.51.04-3.03,1.2-3.03,3.02v13.99h-5.87v-13.99c0-4.88,3.88-8.79,8.9-8.87h3.15Z"/>
      <path class="cls-1" d="M8.97,6.32s0-.1,0-.14V1.99h-2.18v.5c-.67-.4-1.46-.64-2.31-.64-2.48,0-4.49,2-4.49,4.47s2.01,4.47,4.49,4.47c.84,0,1.63-.23,2.31-.64v.62h2.18v-4.32s0-.1,0-.14h0ZM4.51,8.59c-1.27,0-2.29-1.02-2.29-2.29s1.03-2.29,2.29-2.29c1.19,0,2.17.91,2.28,2.07v.43c-.11,1.16-1.09,2.07-2.28,2.07Z"/>
      <path class="cls-1" d="M13.5,12.16H.38v2.14h13.11v-2.14Z"/>
      <path class="cls-1" d="M103.42,38.01c-4.26,0-7.99,2.24-10.08,5.61l4.26,4.25c.79-2.41,3.07-4.15,5.75-4.15,3.34,0,6.06,2.7,6.06,6.04s-2.71,6.04-6.06,6.04c-2.65,0-4.9-1.7-5.72-4.06l-4.29,4.28c2.09,3.36,5.82,5.61,10.08,5.61,6.54,0,11.84-5.29,11.84-11.81s-5.3-11.81-11.84-11.81h0Z"/>
      <path class="cls-1" d="M81.76,43.72c2.68,0,4.96,1.74,5.75,4.15l4.26-4.25c-2.09-3.36-5.82-5.61-10.08-5.61-2.23,0-4.32.62-6.1,1.69v-6.06h-5.74v27.6h5.74v-1.28c1.78,1.07,3.87,1.69,6.1,1.69,4.26,0,7.99-2.24,10.08-5.61l-1.25-1.25-3.04-3.03c-.82,2.36-3.07,4.06-5.72,4.06-3.34,0-6.06-2.7-6.06-6.04s2.71-6.04,6.06-6.04h0Z"/>
      <path class="cls-1" d="M98.18,5.65h5.75v27.62h-5.75v-6.17c-1.63.93-3.53,1.47-5.59,1.47-6.18,0-11.19-4.96-11.26-11.51V5.65h5.75v11.41c.04,3.14,2.52,5.73,5.51,5.73s5.59-2.52,5.59-5.73V5.65Z"/>
      <path class="cls-1" d="M39.57,16.95c0-.13,0-.26,0-.38V5.5h-5.75v1.32c-1.78-1.07-3.87-1.68-6.1-1.68-6.55,0-11.85,5.29-11.85,11.82s5.31,11.82,11.85,11.82c2.23,0,4.31-.62,6.1-1.68v1.27h5.75v-11.03c0-.13,0-.25,0-.38h0ZM27.78,22.94c-3.35,0-6.06-2.71-6.06-6.05s2.71-6.05,6.06-6.05c3.15,0,5.74,2.4,6.03,5.47v1.16c-.29,3.07-2.88,5.47-6.03,5.47Z"/>
      <path class="cls-1" d="M74.42,18.99c.08,2.13,1.87,3.91,4,4.03v5.73c-5.4-.12-9.67-4.34-9.75-9.76V0h5.75v18.99Z"/>
      <path class="cls-1" d="M49.05,28.36h-5.75V.01h5.75v6.9c1.63-.93,3.53-1.47,5.59-1.47,6.18,0,11.19,4.96,11.26,11.51v11.41h-5.75v-11.41c-.04-3.14-2.52-5.73-5.51-5.73s-5.59,2.52-5.59,5.73v11.41Z"/>
      <path class="cls-1" d="M8.98,6.29s0-.1,0-.15V1.95h-2.18v.5c-.68-.4-1.46-.64-2.31-.64-2.48,0-4.49,2-4.49,4.48s2.01,4.48,4.49,4.48c.84,0,1.64-.23,2.31-.64v.62h2.18v-4.32s0-.1,0-.15h0ZM4.51,8.56c-1.27,0-2.3-1.03-2.3-2.29s1.03-2.29,2.3-2.29c1.19,0,2.17.91,2.29,2.07v.43c-.11,1.16-1.09,2.07-2.29,2.07Z"/>
      <path class="cls-1" d="M13.51,12.14H.38v2.14h13.13v-2.14Z"/>
      <path class="cls-1" d="M3.48,69.36c.62,0,1.14.07,1.56.22.42.15.75.35,1,.6.25.25.42.54.53.88.1.33.16.68.16,1.04s-.06.71-.18,1.05c-.12.34-.3.63-.56.89-.25.26-.59.46-1,.62-.41.15-.92.23-1.51.23H.32v-5.52h3.17ZM1.45,73.91h2c.41,0,.75-.05,1.02-.15.27-.1.49-.24.65-.4.16-.17.27-.37.34-.58.07-.22.1-.44.1-.67s-.03-.45-.1-.67c-.07-.21-.18-.4-.34-.56-.16-.16-.37-.3-.65-.39-.27-.1-.61-.15-1.02-.15H1.45v3.58h0Z"/>
      <path class="cls-1" d="M15.09,72.58v1.36h4.27v.95h-5.41v-5.52h5.4v.95h-4.26v1.37h3.49v.9h-3.49Z"/>
      <path class="cls-1" d="M28.61,74.88l-2.45-5.52h1.26l2.1,4.99h-.39l2.09-4.99h1.24l-2.42,5.52h-1.42Z"/>
      <path class="cls-1" d="M40.53,72.58v1.36h4.27v.95h-5.41v-5.52h5.4v.95h-4.26v1.37h3.49v.9h-3.49Z"/>
      <path class="cls-1" d="M53.22,69.36v4.58h3.68v.95h-4.82v-5.52h1.14Z"/>
      <path class="cls-1" d="M67.12,74.99c-.74,0-1.37-.11-1.89-.35-.52-.23-.92-.56-1.2-.99-.28-.43-.42-.94-.42-1.54s.14-1.12.42-1.55c.28-.43.68-.76,1.2-.99.52-.23,1.15-.35,1.89-.35s1.37.11,1.89.35c.52.23.92.56,1.19.99.28.43.42.94.42,1.55s-.14,1.11-.42,1.54c-.28.43-.68.76-1.19.99-.52.23-1.15.35-1.89.35ZM67.12,74.01c.46,0,.86-.07,1.2-.2.35-.14.62-.34.81-.62.2-.28.29-.63.29-1.06s-.1-.78-.29-1.06c-.2-.28-.47-.49-.81-.63-.35-.14-.75-.21-1.2-.21s-.85.07-1.21.21c-.35.14-.63.35-.83.63-.2.28-.3.63-.3,1.06s.1.78.3,1.06c.2.28.48.49.83.62.35.14.76.2,1.21.2Z"/>
      <path class="cls-1" d="M78.83,73.09v-.91h2.53c.3,0,.54-.08.72-.24.18-.16.27-.39.27-.68s-.09-.53-.27-.69c-.18-.16-.42-.24-.72-.24h-2.4v4.55h-1.14v-5.52h3.43c.31,0,.6.04.87.11.27.07.51.19.71.34.2.15.36.35.47.59.12.24.17.53.17.86s-.06.61-.17.84c-.12.23-.27.42-.47.57-.2.15-.44.25-.71.32-.27.06-.56.1-.87.1h-2.43Z"/>
      <path class="cls-1" d="M94.97,74.32h-.54l3.19-4.96h1.14v5.52h-1.14v-4.01l.27.08-2.54,3.94h-1.28l-2.54-3.92.27-.08v4h-1.14v-5.52h1.14l3.17,4.96h0Z"/>
      <path class="cls-1" d="M107.32,72.58v1.36h4.27v.95h-5.41v-5.52h5.4v.95h-4.26v1.37h3.49v.9h-3.49Z"/>
      <path class="cls-1" d="M124.49,73.75l-.36.15v-4.54h1.14v5.52h-1.14l-4.48-4.36.36-.15v4.51h-1.14v-5.52h1.14l4.48,4.4Z"/>
      <path class="cls-1" d="M132.21,69.36h5.84v.95h-5.84v-.95ZM134.57,70.19h1.14v4.7h-1.14v-4.7Z"/>
      <path class="cls-1" d="M144.62,73.02h1.16c.02.19.11.37.27.53.16.16.36.28.62.37s.55.13.86.13c.29,0,.53-.03.72-.09.19-.06.33-.15.42-.26.09-.11.14-.25.14-.41s-.06-.27-.17-.35c-.12-.08-.29-.15-.54-.2-.24-.05-.57-.11-.97-.17-.31-.05-.61-.11-.89-.19-.28-.08-.53-.19-.74-.32-.21-.13-.38-.29-.51-.48-.12-.19-.18-.42-.18-.68,0-.33.09-.61.28-.85.19-.24.46-.44.83-.57.37-.14.81-.2,1.34-.2.8,0,1.41.17,1.84.51.43.34.64.8.63,1.4h-1.11c-.02-.34-.16-.58-.42-.73-.26-.15-.59-.22-.98-.22-.37,0-.67.05-.9.16-.24.11-.35.29-.35.55,0,.1.03.19.09.27.06.08.15.14.29.2.14.06.32.11.56.16.23.05.53.1.87.15.33.05.62.11.89.18.27.08.49.18.68.3.19.12.34.28.44.47.1.19.15.42.15.69,0,.34-.09.63-.26.88-.17.25-.44.44-.81.58-.36.14-.83.2-1.41.2-.41,0-.77-.04-1.09-.13-.31-.09-.59-.21-.81-.35-.23-.15-.41-.31-.56-.49-.14-.18-.24-.35-.3-.53-.06-.18-.08-.34-.07-.48h0Z"/>
    </g>
  </g>
</svg>