<?xml version="1.0" encoding="utf-8"?>
<!-- Generator: Adobe Illustrator 28.1.0, SVG Export Plug-In . SVG Version: 6.00 Build 0)  -->
<svg version="1.1" id="Layer_1" xmlns="http://www.w3.org/2000/svg" xmlns:xlink="http://www.w3.org/1999/xlink" x="0px" y="0px"
	 viewBox="0 0 156 75" style="enable-background:new 0 0 156 75;" xml:space="preserve">
<style type="text/css">
	.st0{clip-path:url(#SVGID_00000183944996839323957010000009420404918996800184_);}
	.st1{fill:#2E55A4;}
</style>
<g>
	<defs>
		<rect id="SVGID_1_" x="-7.7" y="141.2" width="156" height="75"/>
	</defs>
	<clipPath id="SVGID_00000090980141928110091470000006311982753024880028_">
		<use xlink:href="#SVGID_1_"  style="overflow:visible;"/>
	</clipPath>
	<g style="clip-path:url(#SVGID_00000090980141928110091470000006311982753024880028_);">
		<path class="st1" d="M4.2,148.4c0,0.8,0.7,1.5,1.5,1.5v2.1c-2,0-3.6-1.6-3.7-3.7v-7.1h2.2V148.4z"/>
		<path class="st1" d="M47.5,179.2c-2.2,0-4.3,0.6-6.1,1.7v-6.1h-5.7v27.6h5.7v-1.3c1.8,1.1,3.9,1.7,6.1,1.7
			c6.5,0,11.9-5.3,11.9-11.8S54,179.2,47.5,179.2L47.5,179.2z M47.5,197.1c-3.3,0-6.1-2.7-6.1-6s2.7-6,6.1-6c3.3,0,6.1,2.7,6.1,6
			S50.9,197.1,47.5,197.1z"/>
		<path class="st1" d="M31.9,191.1c0-0.1,0-0.3,0-0.4v-11.1h-5.7v1.3c-1.8-1.1-3.9-1.7-6.1-1.7c-6.5,0-11.9,5.3-11.9,11.8
			c0,6.5,5.3,11.8,11.9,11.8c2.2,0,4.3-0.6,6.1-1.7v1.3h5.7v-11C31.9,191.3,31.9,191.2,31.9,191.1L31.9,191.1z M20.1,197.1
			c-3.3,0-6.1-2.7-6.1-6c0-3.3,2.7-6,6.1-6c3.2,0,5.7,2.4,6,5.5v1.2C25.8,194.7,23.2,197.1,20.1,197.1z"/>
		<path class="st1" d="M6.1,197.2c-0.5,3.3-2.8,5.3-6.2,5.6c-2.6,0.2-5.3-0.8-7.3-3.3l2.7-3.6c0.6,0.6,1.4,1.4,2.6,1.7
			c1.2,0.4,2.4,0.3,2.9-0.7c0.4-1.2-1.2-2.7-3.1-4c-2.4-1.8-5.9-4.5-5.4-7.9c0.5-3.3,2.8-5.4,6.2-5.6c2.6-0.2,5.2,0.8,7.3,3.3
			l-2.7,3.6c-0.7-0.7-1.7-1.6-3.1-2c-1-0.2-2,0.1-2.4,1.1c-0.4,1.4,1.9,2.9,3.8,4.2C4,191.4,6.6,193.7,6.1,197.2L6.1,197.2z"/>
		<path class="st1" d="M127.2,179.6v11.7c-0.1,3.1-2.6,5.8-5.6,5.8c-3,0-5.4-2.6-5.5-5.8v-11.7h-5.7v11.7c0.1,6.6,5,11.5,11.3,11.5
			c2,0,3.9-0.5,5.6-1.4v1.1h5.7v-22.9H127.2z"/>
		<path class="st1" d="M148.3,179.6v5.9h-3.1c-1.5,0-3,1.2-3,3v14h-5.9v-14c0-4.9,3.9-8.8,8.9-8.9L148.3,179.6L148.3,179.6z"/>
		<path class="st1" d="M1.3,147.6c0,0,0-0.1,0-0.1v-4.2h-2.2v0.5c-0.7-0.4-1.5-0.6-2.3-0.6c-2.5,0-4.5,2-4.5,4.5
			c0,2.5,2,4.5,4.5,4.5c0.8,0,1.6-0.2,2.3-0.6v0.6h2.2v-4.3C1.3,147.7,1.3,147.6,1.3,147.6L1.3,147.6z M-3.2,149.8
			c-1.3,0-2.3-1-2.3-2.3s1-2.3,2.3-2.3c1.2,0,2.2,0.9,2.3,2.1v0.4C-1,148.9-2,149.8-3.2,149.8z"/>
		<path class="st1" d="M5.8,153.4H-7.3v2.1H5.8V153.4z"/>
		<path class="st1" d="M95.7,179.3c-4.3,0-8,2.2-10.1,5.6l4.3,4.3c0.8-2.4,3.1-4.1,5.8-4.1c3.3,0,6.1,2.7,6.1,6c0,3.3-2.7,6-6.1,6
			c-2.6,0-4.9-1.7-5.7-4.1l-4.3,4.3c2.1,3.4,5.8,5.6,10.1,5.6c6.5,0,11.8-5.3,11.8-11.8C107.6,184.5,102.3,179.3,95.7,179.3
			L95.7,179.3z"/>
		<path class="st1" d="M74.1,185c2.7,0,5,1.7,5.8,4.1l4.3-4.3c-2.1-3.4-5.8-5.6-10.1-5.6c-2.2,0-4.3,0.6-6.1,1.7v-6.1h-5.7v27.6h5.7
			v-1.3c1.8,1.1,3.9,1.7,6.1,1.7c4.3,0,8-2.2,10.1-5.6l-1.3-1.2l-3-3c-0.8,2.4-3.1,4.1-5.7,4.1c-3.3,0-6.1-2.7-6.1-6
			S70.7,185,74.1,185L74.1,185z"/>
		<path class="st1" d="M90.5,146.9h5.7v27.6h-5.7v-6.2c-1.6,0.9-3.5,1.5-5.6,1.5c-6.2,0-11.2-5-11.3-11.5v-11.4h5.7v11.4
			c0,3.1,2.5,5.7,5.5,5.7c3,0,5.6-2.5,5.6-5.7V146.9z"/>
		<path class="st1" d="M31.9,158.2c0-0.1,0-0.3,0-0.4v-11.1h-5.7v1.3c-1.8-1.1-3.9-1.7-6.1-1.7c-6.5,0-11.9,5.3-11.9,11.8
			c0,6.5,5.3,11.8,11.9,11.8c2.2,0,4.3-0.6,6.1-1.7v1.3h5.7v-11C31.9,158.5,31.9,158.3,31.9,158.2L31.9,158.2z M20.1,164.2
			c-3.3,0-6.1-2.7-6.1-6c0-3.3,2.7-6,6.1-6c3.2,0,5.7,2.4,6,5.5v1.2C25.8,161.8,23.2,164.2,20.1,164.2z"/>
		<path class="st1" d="M66.7,160.2c0.1,2.1,1.9,3.9,4,4v5.7c-5.4-0.1-9.7-4.3-9.7-9.8v-19h5.7V160.2z"/>
		<path class="st1" d="M41.4,169.6h-5.7v-28.3h5.7v6.9c1.6-0.9,3.5-1.5,5.6-1.5c6.2,0,11.2,5,11.3,11.5v11.4h-5.7v-11.4
			c0-3.1-2.5-5.7-5.5-5.7c-3,0-5.6,2.5-5.6,5.7V169.6z"/>
		<path class="st1" d="M1.3,147.5c0,0,0-0.1,0-0.1v-4.2h-2.2v0.5c-0.7-0.4-1.5-0.6-2.3-0.6c-2.5,0-4.5,2-4.5,4.5s2,4.5,4.5,4.5
			c0.8,0,1.6-0.2,2.3-0.6v0.6h2.2v-4.3C1.3,147.6,1.3,147.6,1.3,147.5L1.3,147.5z M-3.2,149.8c-1.3,0-2.3-1-2.3-2.3s1-2.3,2.3-2.3
			c1.2,0,2.2,0.9,2.3,2.1v0.4C-1,148.9-2,149.8-3.2,149.8z"/>
		<path class="st1" d="M5.8,153.4H-7.3v2.1H5.8V153.4z"/>
		<path class="st1" d="M-4.2,210.6c0.6,0,1.1,0.1,1.6,0.2c0.4,0.1,0.7,0.3,1,0.6c0.2,0.3,0.4,0.5,0.5,0.9c0.1,0.3,0.2,0.7,0.2,1
			c0,0.4-0.1,0.7-0.2,1c-0.1,0.3-0.3,0.6-0.6,0.9c-0.3,0.3-0.6,0.5-1,0.6c-0.4,0.2-0.9,0.2-1.5,0.2h-3.2v-5.5H-4.2z M-6.2,215.1h2
			c0.4,0,0.8,0,1-0.2c0.3-0.1,0.5-0.2,0.6-0.4c0.2-0.2,0.3-0.4,0.3-0.6c0.1-0.2,0.1-0.4,0.1-0.7c0-0.2,0-0.5-0.1-0.7
			c-0.1-0.2-0.2-0.4-0.3-0.6c-0.2-0.2-0.4-0.3-0.6-0.4c-0.3-0.1-0.6-0.1-1-0.1h-2V215.1L-6.2,215.1z"/>
		<path class="st1" d="M7.4,213.8v1.4h4.3v0.9H6.2v-5.5h5.4v0.9H7.4v1.4h3.5v0.9H7.4z"/>
		<path class="st1" d="M20.9,216.1l-2.4-5.5h1.3l2.1,5h-0.4l2.1-5h1.2l-2.4,5.5H20.9L20.9,216.1z"/>
		<path class="st1" d="M32.8,213.8v1.4h4.3v0.9h-5.4v-5.5h5.4v0.9h-4.3v1.4h3.5v0.9H32.8z"/>
		<path class="st1" d="M45.5,210.6v4.6h3.7v0.9h-4.8v-5.5H45.5z"/>
		<path class="st1" d="M59.4,216.2c-0.7,0-1.4-0.1-1.9-0.3c-0.5-0.2-0.9-0.6-1.2-1c-0.3-0.4-0.4-0.9-0.4-1.5c0-0.6,0.1-1.1,0.4-1.5
			c0.3-0.4,0.7-0.8,1.2-1c0.5-0.2,1.2-0.3,1.9-0.3c0.7,0,1.4,0.1,1.9,0.3c0.5,0.2,0.9,0.6,1.2,1c0.3,0.4,0.4,0.9,0.4,1.5
			c0,0.6-0.1,1.1-0.4,1.5c-0.3,0.4-0.7,0.8-1.2,1C60.8,216.1,60.2,216.2,59.4,216.2z M59.4,215.2c0.5,0,0.9-0.1,1.2-0.2
			c0.3-0.1,0.6-0.3,0.8-0.6s0.3-0.6,0.3-1.1c0-0.4-0.1-0.8-0.3-1.1s-0.5-0.5-0.8-0.6c-0.3-0.1-0.7-0.2-1.2-0.2
			c-0.5,0-0.9,0.1-1.2,0.2c-0.4,0.1-0.6,0.3-0.8,0.6c-0.2,0.3-0.3,0.6-0.3,1.1c0,0.4,0.1,0.8,0.3,1.1c0.2,0.3,0.5,0.5,0.8,0.6
			C58.6,215.2,59,215.2,59.4,215.2z"/>
		<path class="st1" d="M71.1,214.3v-0.9h2.5c0.3,0,0.5-0.1,0.7-0.2c0.2-0.2,0.3-0.4,0.3-0.7c0-0.3-0.1-0.5-0.3-0.7
			c-0.2-0.2-0.4-0.2-0.7-0.2h-2.4v4.6h-1.1v-5.5h3.4c0.3,0,0.6,0,0.9,0.1c0.3,0.1,0.5,0.2,0.7,0.3c0.2,0.2,0.4,0.4,0.5,0.6
			c0.1,0.2,0.2,0.5,0.2,0.9c0,0.3-0.1,0.6-0.2,0.8c-0.1,0.2-0.3,0.4-0.5,0.6c-0.2,0.1-0.4,0.3-0.7,0.3c-0.3,0.1-0.6,0.1-0.9,0.1
			L71.1,214.3L71.1,214.3z"/>
		<path class="st1" d="M87.3,215.6h-0.5l3.2-5h1.1v5.5h-1.1v-4l0.3,0.1l-2.5,3.9h-1.3l-2.5-3.9l0.3-0.1v4H83v-5.5h1.1L87.3,215.6
			L87.3,215.6z"/>
		<path class="st1" d="M99.6,213.8v1.4h4.3v0.9h-5.4v-5.5h5.4v0.9h-4.3v1.4h3.5v0.9H99.6z"/>
		<path class="st1" d="M116.8,215l-0.4,0.1v-4.5h1.1v5.5h-1.1l-4.5-4.4l0.4-0.1v4.5h-1.1v-5.5h1.1L116.8,215z"/>
		<path class="st1" d="M124.5,210.6h5.8v0.9h-5.8V210.6z M126.9,211.4h1.1v4.7h-1.1V211.4z"/>
		<path class="st1" d="M136.9,214.3h1.2c0,0.2,0.1,0.4,0.3,0.5c0.2,0.2,0.4,0.3,0.6,0.4s0.5,0.1,0.9,0.1c0.3,0,0.5,0,0.7-0.1
			c0.2-0.1,0.3-0.2,0.4-0.3c0.1-0.1,0.1-0.3,0.1-0.4c0-0.2-0.1-0.3-0.2-0.4c-0.1-0.1-0.3-0.2-0.5-0.2c-0.2-0.1-0.6-0.1-1-0.2
			c-0.3,0-0.6-0.1-0.9-0.2c-0.3-0.1-0.5-0.2-0.7-0.3c-0.2-0.1-0.4-0.3-0.5-0.5c-0.1-0.2-0.2-0.4-0.2-0.7c0-0.3,0.1-0.6,0.3-0.9
			c0.2-0.2,0.5-0.4,0.8-0.6c0.4-0.1,0.8-0.2,1.3-0.2c0.8,0,1.4,0.2,1.8,0.5c0.4,0.3,0.6,0.8,0.6,1.4h-1.1c0-0.3-0.2-0.6-0.4-0.7
			c-0.3-0.1-0.6-0.2-1-0.2c-0.4,0-0.7,0.1-0.9,0.2c-0.2,0.1-0.4,0.3-0.4,0.6c0,0.1,0,0.2,0.1,0.3c0.1,0.1,0.2,0.1,0.3,0.2
			c0.1,0.1,0.3,0.1,0.6,0.2c0.2,0.1,0.5,0.1,0.9,0.2c0.3,0,0.6,0.1,0.9,0.2c0.3,0.1,0.5,0.2,0.7,0.3c0.2,0.1,0.3,0.3,0.4,0.5
			c0.1,0.2,0.2,0.4,0.2,0.7c0,0.3-0.1,0.6-0.3,0.9c-0.2,0.2-0.4,0.4-0.8,0.6c-0.4,0.1-0.8,0.2-1.4,0.2c-0.4,0-0.8,0-1.1-0.1
			c-0.3-0.1-0.6-0.2-0.8-0.4c-0.2-0.1-0.4-0.3-0.6-0.5c-0.1-0.2-0.2-0.4-0.3-0.5C136.9,214.6,136.9,214.4,136.9,214.3L136.9,214.3z"
			/>
	</g>
</g>
</svg>
